/* XPM */
static char *image[] = {
"48 48 550 2",
"   c None",
"00 c #3d1e5a",
"10 c #432061",
"20 c #432261",
"30 c #422061",
"40 c #40205f",
"50 c #3d205a",
"60 c #371d54",
"70 c #421e5f",
"80 c #4f256d",
"90 c #5c2b7f",
":0 c #642f89",
";0 c #68318d",
"A0 c #68328e",
"B0 c #65328a",
"C0 c #5d2f82",
"D0 c #522874",
"E0 c #482268",
"F0 c #482266",
"G0 c #3e1f5a",
"H0 c #462165",
"I0 c #652d89",
"J0 c #7d38a5",
"K0 c #8f40bb",
"L0 c #864bb8",
"M0 c #7743a7",
"N0 c #663890",
"O0 c #4f2871",
"P0 c #472268",
"Q0 c #482367",
"R0 c #3a1e57",
"S0 c #41205e",
"T0 c #4e246c",
"U0 c #7933a0",
"V0 c #923ebe",
"W0 c #7346a3",
"X0 c #57307c",
"Y0 c #48236a",
"Z0 c #462267",
"a0 c #411f5e",
"b0 c #462163",
"c0 c #75329c",
"d0 c #933fbf",
"e0 c #854eb8",
"f0 c #714aa2",
"g0 c #522a74",
"h0 c #4b246d",
"i0 c #431f5f",
"j0 c #592879",
"k0 c #8f3bba",
"l0 c #9340bf",
"m0 c #9042be",
"n0 c #7d57b4",
"o0 c #613b8d",
"p0 c #4c256d",
"q0 c #432164",
"r0 c #421f5f",
"s0 c #6b2e90",
"t0 c #933ec0",
"u0 c #933fc0",
"v0 c #9142bf",
"w0 c #6d4a9f",
"x0 c #4e2570",
"y0 c #47236a",
"z0 c #73319a",
"01 c #8e44bd",
"11 c #894ab9",
"21 c #8954b9",
"31 c #996dc4",
"41 c #a884cc",
"51 c #b497d3",
"61 c #c0a8da",
"71 c #c3afdc",
"81 c #bea9d8",
"91 c #a387c9",
":1 c #8761b8",
";1 c #502672",
"A1 c #482469",
"B1 c #421f5e",
"C1 c #703095",
"D1 c #943fc0",
"E1 c #9240bf",
"F1 c #945ac1",
"G1 c #af87d0",
"H1 c #c6abde",
"I1 c #d9c8e9",
"J1 c #eee6f5",
"K1 c #efe9f6",
"L1 c #cfbfe3",
"M1 c #b095d1",
"N1 c #916cbe",
"O1 c #7351a6",
"P1 c #4f2673",
"Q1 c #452267",
"R1 c #642c86",
"S1 c #9340c0",
"T1 c #8e45bc",
"U1 c #8e49bd",
"V1 c #a977cd",
"W1 c #c9abdf",
"X1 c #eae0f3",
"Y1 c #f3eef8",
"Z1 c #d0bee3",
"a1 c #b092d1",
"b1 c #9067be",
"c1 c #6d4c9f",
"d1 c #4f2573",
"e1 c #401e5c",
"f1 c #4f256e",
"g1 c #913fbe",
"h1 c #9241bf",
"i1 c #8f43be",
"j1 c #924fbf",
"k1 c #bf9ada",
"l1 c #f1e9f7",
"m1 c #f3edf8",
"n1 c #c4aadc",
"o1 c #9c72c5",
"p1 c #613c8d",
"q1 c #512775",
"r1 c #41205f",
"s1 c #843aae",
"t1 c #9141bf",
"u1 c #9a5bc4",
"v1 c #efe6f6",
"w1 c #e3d7ee",
"x1 c #d4c2e5",
"y1 c #d5c5e6",
"z1 c #ddd1eb",
"02 c #e2d9ee",
"12 c #e8e0f1",
"22 c #ece6f4",
"32 c #e3daee",
"42 c #dacfe9",
"52 c #c6b5de",
"62 c #ab93cf",
"72 c #8b6abd",
"82 c #7d62b7",
"92 c #542b79",
":2 c #49246d",
";2 c #411f5f",
"A2 c #642d87",
"B2 c #9142be",
"C2 c #9043be",
"D2 c #b285d2",
"E2 c #e2daee",
"F2 c #baa8d8",
"G2 c #8c6dbe",
"H2 c #6f50a4",
"I2 c #532778",
"J2 c #442060",
"K2 c #893fb6",
"L2 c #8f43bd",
"M2 c #a270c8",
"N2 c #c4a8dc",
"O2 c #ddcdeb",
"P2 c #eae1f3",
"Q2 c #f4eff8",
"R2 c #f7f3fa",
"S2 c #fbf9fc",
"T2 c #d4cae7",
"U2 c #947bc4",
"V2 c #572f81",
"W2 c #4b2470",
"X2 c #432060",
"Y2 c #612e85",
"Z2 c #8f44bd",
"a2 c #8e45bd",
"b2 c #8a48bb",
"c2 c #8351b6",
"d2 c #855fb8",
"e2 c #8f6dbe",
"f2 c #9a7bc5",
"g2 c #a48bcb",
"h2 c #baa7d8",
"i2 c #d2c6e5",
"j2 c #f3f0f8",
"k2 c #fcfcfe",
"l2 c #c0b3dd",
"m2 c #6e51a2",
"n2 c #532779",
"o2 c #43205f",
"p2 c #7e3da9",
"q2 c #8d45bc",
"r2 c #8c47bc",
"s2 c #864eb8",
"t2 c #7e54b3",
"u2 c #8260b8",
"v2 c #a892ce",
"w2 c #ece8f5",
"x2 c #cabfe2",
"y2 c #7e69b9",
"z2 c #55287b",
"03 c #3b1d5a",
"13 c #4c246b",
"23 c #8d46bc",
"33 c #8c47bb",
"43 c #8b48bb",
"53 c #884ab9",
"63 c #8153b5",
"73 c #9176c2",
"83 c #9c8bcb",
"93 c #633f91",
":3 c #42205f",
";3 c #612f86",
"A3 c #8b47bb",
"B3 c #8450b6",
"C3 c #9c86c8",
"D3 c #bbafdb",
"E3 c #7055a5",
"F3 c #55297c",
"G3 c #442162",
"H3 c #723a9d",
"I3 c #8a49ba",
"J3 c #894aba",
"K3 c #886ebe",
"L3 c #e7e2f2",
"M3 c #ac9fd3",
"N3 c #8172be",
"O3 c #7b68b6",
"P3 c #56287d",
"Q3 c #442062",
"R3 c #7e43ac",
"S3 c #884bb9",
"T3 c #874cb9",
"U3 c #9983c7",
"V3 c #eae6f3",
"W3 c #ece9f5",
"X3 c #8471bf",
"Y3 c #452163",
"Z3 c #864ab7",
"a3 c #874cb8",
"b3 c #9881c6",
"c3 c #cfc5e5",
"d3 c #edeaf6",
"e3 c #9282c6",
"f3 c #5c3387",
"g3 c #4a2670",
"h3 c #472266",
"i3 c #864db8",
"j3 c #844fb7",
"k3 c #7e5db7",
"l3 c #805fb7",
"m3 c #8162b9",
"n3 c #9a83c7",
"o3 c #beb0dc",
"p3 c #e9e5f3",
"q3 c #cac2e3",
"r3 c #8675c0",
"s3 c #603a8e",
"t3 c #4d2672",
"u3 c #4a246a",
"v3 c #854eb7",
"w3 c #844fb6",
"x3 c #8252b5",
"y3 c #9579c4",
"z3 c #b4a1d5",
"04 c #d3c8e6",
"14 c #f5f3f9",
"24 c #fefefe",
"34 c #9c8dcb",
"44 c #4a256b",
"54 c #8350b6",
"64 c #8251b6",
"74 c #8053b4",
"84 c #825fb8",
"94 c #beadda",
":4 c #f4f1f9",
";4 c #f7f5fa",
"A4 c #dad4ec",
"B4 c #b8add9",
"C4 c #8e7cc4",
"D4 c #644093",
"E4 c #4e2675",
"F4 c #492268",
"G4 c #8251b5",
"H4 c #8152b5",
"I4 c #8054b4",
"J4 c #a590cd",
"K4 c #e1daee",
"L4 c #e2dcef",
"M4 c #b7aad8",
"N4 c #a797d0",
"O4 c #9d8ccb",
"P4 c #8e7ac4",
"Q4 c #613c8f",
"R4 c #4d2673",
"S4 c #472267",
"T4 c #7d50b0",
"U4 c #7e54b4",
"V4 c #7e55b3",
"W4 c #9f8bcb",
"X4 c #dcd4ec",
"Y4 c #dcd6ec",
"Z4 c #5d348a",
"a4 c #4c2571",
"b4 c #482267",
"c4 c #744aa5",
"d4 c #7e55b4",
"e4 c #7e56b4",
"f4 c #9c89ca",
"g4 c #d9d2eb",
"h4 c #fefeff",
"i4 c #d9d3eb",
"j4 c #9f90cd",
"k4 c #5b2a84",
"l4 c #492369",
"m4 c #6b4399",
"n4 c #7e57b4",
"o4 c #7e5ab5",
"p4 c #9584c8",
"q4 c #d1c9e7",
"r4 c #8c7fc5",
"s4 c #8174bf",
"t4 c #7c71ba",
"u4 c #5a2a84",
"v4 c #472365",
"w4 c #5e3584",
"x4 c #7e58b5",
"y4 c #9686c8",
"z4 c #dedaee",
"05 c #f5f4fa",
"15 c #9e94ce",
"25 c #5b2c84",
"35 c #3e1f5f",
"45 c #4f276f",
"55 c #7e59b5",
"65 c #7e5ab6",
"75 c #7e5bb6",
"85 c #7e5cb7",
"95 c #8063ba",
":5 c #816abd",
";5 c #816fbe",
"A5 c #8272bf",
"B5 c #e6e3f2",
"C5 c #fafafd",
"D5 c #a59dd3",
"E5 c #552a7e",
"F5 c #4b236b",
"G5 c #704ca3",
"H5 c #7e5cb6",
"I5 c #816dbc",
"J5 c #8f82c6",
"K5 c #eeecf6",
"L5 c #f8f8fc",
"M5 c #948ccb",
"N5 c #807ac0",
"O5 c #49246b",
"P5 c #5d3786",
"Q5 c #805db7",
"R5 c #805eb7",
"S5 c #805fb8",
"T5 c #8061b9",
"U5 c #8979c1",
"V5 c #a296cf",
"W5 c #bbb3dc",
"X5 c #d5d0ea",
"Y5 c #fbfbfd",
"Z5 c #cac7e5",
"a5 c #715ba9",
"b5 c #5c2d85",
"c5 c #4c236d",
"d5 c #7857ae",
"e5 c #8060b8",
"f5 c #8065ba",
"g5 c #856ebe",
"h5 c #ab9dd3",
"i5 c #c9c0e2",
"j5 c #d2cbe7",
"k5 c #dbd5ec",
"l5 c #e4e0f1",
"m5 c #f7f5fb",
"n5 c #bab7de",
"o5 c #827fc3",
"p5 c #5e318a",
"q5 c #502778",
"r5 c #4b256e",
"s5 c #5e3888",
"t5 c #8061b8",
"u5 c #8062b9",
"v5 c #8a74c1",
"w5 c #e6e1f1",
"x5 c #eae9f5",
"y5 c #bbb8df",
"z5 c #847fc4",
"06 c #725caa",
"16 c #5b2c86",
"26 c #4d246f",
"36 c #7353a7",
"46 c #8063b9",
"56 c #8064ba",
"66 c #8165ba",
"76 c #8166bb",
"86 c #8168bc",
"96 c #c0b5de",
":6 c #fcfbfd",
";6 c #edebf6",
"A6 c #d0cce8",
"B6 c #c1bbe0",
"C6 c #b5afdb",
"D6 c #afa8d7",
"E6 c #a7a1d4",
"F6 c #9b94ce",
"G6 c #8b85c7",
"H6 c #7f79bf",
"I6 c #4e2676",
"J6 c #48246b",
"K6 c #542b78",
"L6 c #7c61b6",
"M6 c #8166ba",
"N6 c #8167bb",
"O6 c #816bbd",
"P6 c #ccc4e4",
"Q6 c #dbd6ec",
"R6 c #a69bd2",
"S6 c #8d81c5",
"T6 c #8175bf",
"U6 c #8279c1",
"V6 c #8280c5",
"W6 c #664397",
"X6 c #592c84",
"Y6 c #4e2673",
"Z6 c #5f3b8a",
"a6 c #8067ba",
"b6 c #8168bb",
"c6 c #b3a7d7",
"d6 c #b7afdb",
"e6 c #8678c2",
"f6 c #7059a7",
"g6 c #4f2674",
"h6 c #654294",
"i6 c #8169bc",
"j6 c #816abc",
"k6 c #806bbc",
"l6 c #806cbc",
"m6 c #816dbd",
"n6 c #8573bf",
"o6 c #e9e6f4",
"p6 c #fefdfe",
"q6 c #f7f6fb",
"r6 c #f6f5fa",
"s6 c #eeedf7",
"t6 c #ebe9f5",
"u6 c #cdc9e7",
"v6 c #aaa4d5",
"w6 c #8982c6",
"x6 c #7563ae",
"y6 c #5b2b85",
"z6 c #502574",
"07 c #674797",
"17 c #806dbc",
"27 c #816ebd",
"37 c #8b7cc3",
"47 c #cfc9e6",
"57 c #f9f8fc",
"67 c #ffffff",
"77 c #fbfafd",
"87 c #dfdcef",
"97 c #c1bce0",
":7 c #a29bd2",
";7 c #867fc4",
"A7 c #7663b0",
"B7 c #5c2b86",
"C7 c #644192",
"D7 c #7f6cbb",
"E7 c #816fbd",
"F7 c #8170be",
"G7 c #8578c2",
"H7 c #9b90cc",
"I7 c #988ecb",
"J7 c #857ac2",
"K7 c #725ba9",
"L7 c #5c2a86",
"M7 c #4f2776",
"N7 c #522777",
"O7 c #5a3384",
"P7 c #7a66b4",
"Q7 c #8171be",
"R7 c #8172bf",
"S7 c #8173bf",
"T7 c #8174c0",
"U7 c #8275c0",
"V7 c #8276c1",
"W7 c #837dc4",
"X7 c #807bc1",
"Y7 c #68469a",
"Z7 c #5b2c85",
"a7 c #512776",
"b7 c #54287a",
"c7 c #6b4d9d",
"d7 c #7f71bc",
"e7 c #8175c0",
"f7 c #8276c0",
"g7 c #8277c1",
"h7 c #827bc2",
"i7 c #7461ae",
"j7 c #5d2f89",
"k7 c #5a2c85",
"l7 c #54287b",
"m7 c #572c7f",
"n7 c #6d52a1",
"o7 c #7f72bc",
"p7 c #8278c1",
"q7 c #8279c2",
"r7 c #827ac2",
"s7 c #827bc3",
"t7 c #827cc3",
"u7 c #837dc3",
"v7 c #8380c5",
"w7 c #827ec3",
"x7 c #7560ad",
"y7 c #60368e",
"z7 c #5c2c86",
"08 c #522879",
"18 c #4a256f",
"28 c #562a7e",
"38 c #57297e",
"48 c #634193",
"58 c #725ba8",
"68 c #7d70ba",
"78 c #827dc3",
"88 c #837ec4",
"98 c #837fc4",
":8 c #8380c4",
";8 c #8381c5",
"A8 c #807abf",
"B8 c #7564af",
"C8 c #6b4c9d",
"D8 c #5c2e88",
"E8 c #5b2b86",
"F8 c #512779",
"G8 c #572a80",
"H8 c #582980",
"I8 c #592d83",
"J8 c #60388d",
"K8 c #664295",
"L8 c #68489b",
"M8 c #694b9c",
"N8 c #674497",
"O8 c #633c92",
"P8 c #5c2f89",
"Q8 c #5b2a85",
"R8 c #5a2b86",
"S8 c #582b81",
"T8 c #4d2674",
"U8 c #502676",
"V8 c #51277a",
"W8 c #52287a",
"X8 c #53277a",
"Y8 c #4f2676",
"                                                                                                ",
"                                          Y8X8W8V8U8T8                                          ",
"                                  S8R8Q8P8O8N8M8L8K8J8I8H8G8F8                                  ",
"                            W8E8D8C8B8A8;8;8;8;8:8988878685848382818                            ",
"                        08z7y7x7w7;8;8;8;8;8v79888u7t7s7r7q7p7o7n7m7l7                          ",
"                      k7j7i7:8;8;8;8;8;8;8v7988878t7h7r7q7p7g7f7e7d7c7b7a7                      ",
"                    Z7Y7X7;8;8;8;8;8;8v79888W7t7s7r7q7p7g7V7U7T7S7R7Q7P7O7N7                    ",
"                M7L7K7;8;8;8;8;8;8;8v79888u7t7s7r7q7p7J7I7H7G7S7R7Q7F7E7D7C7N7                  ",
"              Y8B7A7;8;8;8;8;8;8;8:8988878t7h7;7:79787776767574737F7E72717D707z6                ",
"              y6x6;8;8;8;8;8;8v79888u7t7w6v6u6t6s6r6q6p667676767o6n6m6l6k6j6i6h6g6              ",
"            y6f6;8;8;8;8;8;8v79888u7t7h7r7q7p7g7f7U7T7e6d667676767c6l6k6j6i6b6a6Z6Y6            ",
"          X6W6V6;8;8;8;8;8:8988878t7h7r7U6p7g7f7e7T6S6R6Q667676767P6O6j6i6b6N6M6L6K6J6          ",
"        I6D8H6;8;8;8;8v79888u7t7G6F6E6D6C6B6A687;6:66767676767676796i686N6766656463626          ",
"        1606;8;8;8;8v79888z5y5x567676767676767676767676767676767w5v5b6N676665646u5t5s5r5        ",
"      q5p5o5;8;8;8:8988878n56767676767676767676767m5;6l5k5j5i5h5g5b6N6M6f55646u5t5e5d5c5        ",
"      b5a5;8;8v79888u7t7s7Z5676767676767Y5X5W5V5U527m6l6k6j6i686N676665646u5T5e5S5R5Q5P5O5      ",
"      B7N5;8v7988878t7h7r7M5L567676767K5J5Q7F7E727I5l6k6j6i6b6N676665646u5t5e5S5R5Q5H5G5F5      ",
"    E5W6;8:8988878t7h7r7U6g7D5C5676767B5A5;527m6l6k6:5i686N676665695u5T5e5S5R5Q5857565554535    ",
"    25069888u7t7s7r7q7p7g7f7U71505676767z4y4m6l6k6j6i686N676665646u5T5e5S5R5Q5H5756555x4w4v4    ",
"    u4t48878t7h7r7q7p7g7f7e7s4S7r4X5676767p6q4p4j6i6b6N676665646u5t5e5S5R5Q5H575o455x4n4m4l4    ",
"    k4t7t7s7r7q7p7g7V7U7T7S7R7Q7F7;5j4i4676767h4g4f476665695u5T5e5S5R5Q585756555x4n4e4d4c4b4    ",
"  a4Z4t7h7r7q7p7g7f7U7T7S7R7Q7F7E727m6l6j4Y4p6676767X4W446u5T5e5S5R5Q5H5756555x4n4e4V4U4T4S4    ",
"  R4Q4h7r7U6p7g7f7e7s4S7R7Q7F7E72717l6P4O4N4M4L4h4676767K4J4t5S5R5Q5H575o455x4n4e4V4I4H4G4F4    ",
"  E4D4q7p7g7V7U7T7S7R7Q7F7;527C4B4A4;467676767676767676767:4948485756555x4n4e4d4U474H4645444    ",
"  E4D4p7g7f7U7T7S7R7Q7F7E734i4246767676767676767671404z3y3R5Q5H5756555x4n4e4V4U474x354w3v3u3    ",
"  t3s3g7f7e7s4S7R7Q7F7r3q3h46767676767676767p3o3n3m3e5l3R5k3H575o455x4n4e4V474H4G454j3v3i3h3    ",
"  g3f3U7T7S7R7Q7F7;5e3d367676767676767p6c3b3u5T5e5S5R5Q5H5756555x4n4e4d4U474H46454v3i3a3Z3Y3    ",
"    38S7S7R7Q7F7E7X3W367676767676767V3U346u5t5e5S5R5Q5H5756555x4n4e4V4U474G454j3v3i3T3S3R3Q3    ",
"    P3O3N3Q7F7E727M367676767676767L3K346u5t5e5l3R5k3H575o455x4n4e4V474H4G454j3v3a3S3J3I3H3G3    ",
"    F3E3F7E727m6l6D367676767676767C3u5T5e5S5R5Q5H5756555x4n4e4d4U474H464B3v3i3a3S3J3I3A3;3:3    ",
"    U893E72717l6k6836767676767676773t5e5S5R5Q5H575o455x4n4e4V4U463G454j3v3i3T353I34333231303    ",
"      z2y2l6k6j6i686x2676767676767w2v2u2Q585756555x4n4e4d4t274H4G454j3s2a3S3J3I343r2q2p2o2      ",
"      n2m2k6j6i6b6N6N6l2k2676767676767j2i2h2g2f2e2d2e4V4U474H4c2w3v3i3a3S3J3b23323a2Z2Y2X2      ",
"      W2V2i6i6b6N6M6f556U2T2k267676767676767676767676767S2R2R2Q2P2O2N2M2I3433323a2L2K2J2        ",
"        I2H2N676665646u5T5e5G2F2E224676767676767676767676767676767676767D2r2q2Z2C2B2A2;2        ",
"        :29282665646u5T5e5S5R5Q5H57262524232221202z1y1y1x1w16767676767v1u1a2Z2C2t1s1r1          ",
"          q1p15646u5t5e5S5R5k3H575o455x4n4e4V4I4H4G4c2o1n1m1676767l1k1j1a2i1B2h1g1f1e1          ",
"            d1c1T5e5S5R5Q585756555x4n4e4d4U474b1a1Z1Y1676767X1W1V1U1T1Z2C2B2h1S1R1:3            ",
"            Q1P1O1S5R5Q5H5756555x4n4e4N1M1L1K167p6J1I1H1G1F1433323a2Z2C2t1E1D1C1B1              ",
"              A1;1O1k3H575o455x4:19181716151413121i3S311I343r22301C2B2h1S1D1z0:3                ",
"                y0x0w06555x4n4e4d4U474H464B3v3i3a3S3J3I3A323T1Z2C2v0h1u0t0s0r0                  ",
"                  q0p0o0n0n4e4V4U463G454j3v3i3T3S3I3433323a2Z2m0t1l0D1k0j0i0                    ",
"                      h0g0f0t274H4G454j3e0a3S3J3I343r2q201C2B2h1S1d0c0b0a0                      ",
"                        Z0Y0X0W064w3v3i3a3S3J3I33323a2Z2C2v0E1V0U0T0S0R0                        ",
"                            Q0P0O0N0M0L011I3433323a2Z2m0K0J0I0H0S0G0                            ",
"                                35F0H0E0D0C0B0A0;0:09080J2i07060                                ",
"                                        5040302010:300R0                                        ",
"                                                                                                "};
