/* XPM */
static char *image[] = {
"48 48 875 2",
"   c None",
"00 c #e9292d",
"10 c #f0272f",
"20 c #f8272e",
"30 c #f9262f",
"40 c #ec213d",
"50 c #df1d43",
"60 c #cc194a",
"70 c #b9174e",
"80 c #e33728",
"90 c #fd3d23",
":0 c #fa2432",
";0 c #f62336",
"A0 c #cf1654",
"B0 c #ae125b",
"C0 c #ce3932",
"D0 c #dc3c2c",
"E0 c #cd332d",
"F0 c #e43e22",
"G0 c #fb461f",
"H0 c #ef1f3e",
"I0 c #e2174e",
"J0 c #d61358",
"K0 c #af0f63",
"L0 c #a52655",
"M0 c #d63c35",
"N0 c #f5501e",
"O0 c #fd5519",
"P0 c #ff5419",
"Q0 c #ff511a",
"R0 c #ff4a1e",
"S0 c #ff2f29",
"T0 c #f2203c",
"U0 c #e3184c",
"V0 c #c90f61",
"W0 c #980c68",
"X0 c #e35423",
"Y0 c #fe5f15",
"Z0 c #ff6014",
"a0 c #ff6512",
"b0 c #ff511b",
"c0 c #ff461f",
"d0 c #f82434",
"e0 c #d10f60",
"f0 c #b00a6c",
"g0 c #ed6613",
"h0 c #fe6910",
"i0 c #ff6b10",
"j0 c #ff6d0f",
"k0 c #ff6a10",
"l0 c #ff6612",
"m0 c #ff3e23",
"n0 c #ed1d41",
"o0 c #b9096e",
"p0 c #fd730d",
"q0 c #ff740c",
"r0 c #ff8304",
"s0 c #ff8205",
"t0 c #ff6d0e",
"u0 c #ff5d16",
"v0 c #fe262f",
"w0 c #e4194b",
"x0 c #bb0871",
"y0 c #ff7e08",
"z0 c #ff8306",
"01 c #ff8b02",
"11 c #ff8604",
"21 c #ff6114",
"31 c #eb1d43",
"41 c #d81259",
"51 c #b90674",
"61 c #fe8704",
"71 c #ff8804",
"81 c #ff8c02",
"91 c #ff8e01",
":1 c #ff9300",
";1 c #ff9100",
"A1 c #ff8404",
"B1 c #ff7909",
"C1 c #e01750",
"D1 c #d4115c",
"E1 c #c80a6a",
"F1 c #b30478",
"G1 c #f98705",
"H1 c #fd7d0c",
"I1 c #fd8409",
"J1 c #ff8f00",
"K1 c #ff8a02",
"L1 c #ff760b",
"M1 c #ff4420",
"N1 c #ff282c",
"O1 c #f01f3e",
"P1 c #e71a48",
"Q1 c #c3076f",
"R1 c #a9027c",
"S1 c #fd770d",
"T1 c #fe770e",
"U1 c #ff9800",
"V1 c #ff9e00",
"W1 c #ff9a00",
"X1 c #ff9600",
"Y1 c #ff8703",
"Z1 c #ff5618",
"a1 c #d81258",
"b1 c #cb0c66",
"c1 c #bd0476",
"d1 c #ff6019",
"e1 c #ff9c01",
"f1 c #ff9d00",
"g1 c #ffa200",
"h1 c #df8b0f",
"i1 c #9d5a34",
"j1 c #773a50",
"k1 c #64295f",
"l1 c #612663",
"m1 c #6f2f59",
"n1 c #8d4045",
"o1 c #b9552c",
"p1 c #f66d11",
"q1 c #ff5e15",
"r1 c #ff4b1d",
"s1 c #fa2433",
"t1 c #f3213b",
"u1 c #ea1c45",
"v1 c #c5086d",
"w1 c #b1027d",
"x1 c #ffa001",
"y1 c #ffa000",
"z1 c #ffa500",
"02 c #e1990f",
"12 c #6f4650",
"22 c #411d7f",
"32 c #431b7f",
"42 c #46187b",
"52 c #481678",
"62 c #491576",
"72 c #4a1475",
"82 c #571c6c",
"92 c #a94738",
":2 c #ff5d15",
";2 c #f72336",
"A2 c #be0575",
"B2 c #e3900e",
"C2 c #ffa300",
"D2 c #ffb900",
"E2 c #b88525",
"F2 c #3a287c",
"G2 c #3c228b",
"H2 c #3d2188",
"I2 c #3f1f86",
"J2 c #411d83",
"K2 c #431b80",
"L2 c #45197d",
"M2 c #431777",
"N2 c #401571",
"O2 c #3f146f",
"P2 c #411470",
"Q2 c #742d54",
"R2 c #f86115",
"S2 c #ff501b",
"T2 c #ff4520",
"U2 c #f4213a",
"V2 c #df1650",
"W2 c #d3105e",
"X2 c #c5086e",
"Y2 c #b0007e",
"Z2 c #ffa900",
"a2 c #ffaa02",
"b2 c #ffa800",
"c2 c #ffaa00",
"d2 c #ffc200",
"e2 c #b58c29",
"f2 c #2d2988",
"g2 c #342a97",
"h2 c #352995",
"i2 c #372792",
"j2 c #392690",
"k2 c #3b238c",
"l2 c #392085",
"m2 c #351f74",
"n2 c #773c56",
"o2 c #a14849",
"p2 c #b64a47",
"q2 c #b0424d",
"r2 c #a23a51",
"s2 c #ac4142",
"t2 c #fe6015",
"u2 c #ff5718",
"v2 c #f72335",
"w2 c #ef1f3f",
"x2 c #e5194a",
"y2 c #d81358",
"z2 c #cb0b67",
"03 c #bc0378",
"13 c #f0a308",
"23 c #ffaf06",
"33 c #ffad04",
"43 c #ffcb00",
"53 c #ffca00",
"63 c #ddb114",
"73 c #2a3286",
"83 c #2d31a2",
"93 c #2e30a0",
":3 c #2d2c98",
";3 c #2b288f",
"A3 c #2c2785",
"B3 c #7a534e",
"C3 c #e58d14",
"D3 c #fa920b",
"E3 c #f98a0e",
"F3 c #f78211",
"G3 c #f67717",
"H3 c #f46c1f",
"I3 c #f26027",
"J3 c #f1582c",
"K3 c #f85622",
"L3 c #c20771",
"M3 c #aa017b",
"N3 c #feb10a",
"O3 c #ffb40c",
"P3 c #ffb106",
"Q3 c #ffae00",
"R3 c #ffaf00",
"S3 c #ffbe00",
"T3 c #595b65",
"U3 c #2038a9",
"V3 c #243bb0",
"W3 c #243aaf",
"X3 c #2737ab",
"Y3 c #94784a",
"Z3 c #a27d39",
"a3 c #de9d14",
"b3 c #ffa700",
"c3 c #ffa100",
"d3 c #ff9b00",
"e3 c #ff9400",
"f3 c #ff780a",
"g3 c #fe6d10",
"h3 c #fd6116",
"i3 c #fd551b",
"j3 c #ff481f",
"k3 c #ff3d24",
"l3 c #ed1e41",
"m3 c #e2184d",
"n3 c #d5115b",
"o3 c #c7096b",
"p3 c #b3017c",
"q3 c #ffb70f",
"r3 c #ffb912",
"s3 c #ffb508",
"t3 c #ffc600",
"u3 c #ffd700",
"v3 c #d4b91b",
"w3 c #13349c",
"x3 c #1c43bc",
"y3 c #1d42bb",
"z3 c #203fb6",
"04 c #dfae1a",
"14 c #ffac00",
"24 c #ffa600",
"34 c #ff9f00",
"44 c #ff9200",
"54 c #ff7e07",
"64 c #ff6413",
"74 c #ff3826",
"84 c #ff2f2a",
"94 c #f92434",
":4 c #da1356",
";4 c #cc0c66",
"A4 c #bc0477",
"B4 c #f1b015",
"C4 c #ffbc15",
"D4 c #ffbe17",
"E4 c #ffba0c",
"F4 c #ffb700",
"G4 c #ffb800",
"H4 c #ffb400",
"I4 c #848952",
"J4 c #0f40b1",
"K4 c #134bc9",
"L4 c #144bc8",
"M4 c #1847c2",
"N4 c #3957a5",
"O4 c #d0a727",
"P4 c #ffb000",
"Q4 c #f9a704",
"R4 c #c7842b",
"S4 c #a86d41",
"T4 c #bf732f",
"U4 c #f98b04",
"V4 c #ff8405",
"W4 c #ff6113",
"X4 c #ff521a",
"Y4 c #ff4620",
"Z4 c #ff3b24",
"a4 c #fe3826",
"b4 c #e91c45",
"c4 c #dd1552",
"d4 c #c00672",
"e4 c #f9b21a",
"f4 c #ffc018",
"g4 c #ffc31c",
"h4 c #ffc114",
"i4 c #ffba00",
"j4 c #ffb300",
"k4 c #ffb500",
"l4 c #ffe200",
"m4 c #486a80",
"n4 c #0a4cc5",
"o4 c #0c53d5",
"p4 c #0d52d4",
"q4 c #0e51d1",
"r4 c #124ccb",
"s4 c #164ac5",
"t4 c #465e9b",
"u4 c #646980",
"v4 c #555b8a",
"w4 c #2b3faa",
"x4 c #2837aa",
"y4 c #312e9c",
"z4 c #563a7c",
"05 c #d7741b",
"15 c #ff6e0d",
"25 c #ff5b17",
"35 c #f83927",
"45 c #f43828",
"55 c #fd2630",
"65 c #f62237",
"75 c #ec1d42",
"85 c #e1174f",
"95 c #d3105d",
":5 c #c4086e",
";5 c #faa91f",
"A5 c #ffc51f",
"B5 c #ffc721",
"C5 c #ffc821",
"D5 c #ffbf02",
"E5 c #ffc000",
"F5 c #ffb200",
"G5 c #255da0",
"H5 c #0356d6",
"I5 c #0857db",
"J5 c #0b54d7",
"K5 c #114ecd",
"L5 c #1946c1",
"M5 c #223db3",
"N5 c #2638ac",
"O5 c #2b33a5",
"P5 c #3f2e8e",
"Q5 c #cf582b",
"R5 c #ff5519",
"S5 c #fe481f",
"T5 c #f34125",
"U5 c #e9392b",
"V5 c #ed3b29",
"W5 c #ff3925",
"X5 c #ff2d2a",
"Y5 c #ef1e3f",
"Z5 c #e3194b",
"a5 c #d6125a",
"b5 c #c70a6b",
"c5 c #ac0279",
"d5 c #fda61f",
"e5 c #ffc923",
"f5 c #ffcb25",
"g5 c #ffcd27",
"h5 c #ffc711",
"i5 c #ffc300",
"j5 c #ffc400",
"k5 c #ffbc00",
"l5 c #ffab00",
"m5 c #ffb600",
"n5 c #2465a7",
"o5 c #005fe0",
"p5 c #0064ea",
"q5 c #005fe7",
"r5 c #035ce3",
"s5 c #0659de",
"t5 c #124dcb",
"u5 c #1b43bd",
"v5 c #2b34a5",
"w5 c #302e9d",
"x5 c #3f2c86",
"y5 c #f24f20",
"z5 c #ef4723",
"06 c #e44029",
"16 c #d9382f",
"26 c #ee4026",
"36 c #ff3c24",
"46 c #ff3029",
"56 c #fe272e",
"66 c #f11f3d",
"76 c #d91357",
"86 c #ca0b68",
"96 c #b60379",
":6 c #fea41e",
";6 c #ffcd28",
"A6 c #ffcf29",
"B6 c #ffd02b",
"C6 c #ffd129",
"D6 c #ffc804",
"E6 c #ffc800",
"F6 c #ffc900",
"G6 c #ffad00",
"H6 c #ffa400",
"I6 c #ffde00",
"J6 c #36759e",
"K6 c #0066e3",
"L6 c #006df1",
"M6 c #006aef",
"N6 c #025de4",
"O6 c #0658dd",
"P6 c #0b54d6",
"Q6 c #104fce",
"R6 c #1549c6",
"S6 c #1b44be",
"T6 c #203eb5",
"U6 c #2639ad",
"V6 c #2b33a4",
"W6 c #2b2b95",
"X6 c #d14c2e",
"Y6 c #e04627",
"Z6 c #d53e2d",
"a6 c #d03b2f",
"b6 c #fd4a1e",
"c6 c #ff3f23",
"d6 c #ff3228",
"e6 c #fa2532",
"f6 c #db1455",
"g6 c #cc0c65",
"h6 c #b80476",
"i6 c #fea41c",
"j6 c #ffd12c",
"k6 c #ffd22d",
"l6 c #ffd530",
"m6 c #ffd323",
"n6 c #ffcd00",
"o6 c #ff9c00",
"p6 c #ffbb00",
"q6 c #67977c",
"r6 c #006be4",
"s6 c #0076f6",
"t6 c #0075f6",
"u6 c #0072f4",
"v6 c #0070f2",
"w6 c #006df0",
"x6 c #0065eb",
"y6 c #0060e7",
"z6 c #045be0",
"07 c #154ac7",
"17 c #1941b7",
"27 c #55527f",
"37 c #2536a1",
"47 c #3b3489",
"57 c #d74d28",
"67 c #d0452b",
"77 c #cc422d",
"87 c #f4531c",
"97 c #ff4d1d",
":7 c #dc1553",
";7 c #ce0d63",
"A7 c #b70573",
"B7 c #f79e1a",
"C7 c #ffd42f",
"D7 c #ffd631",
"E7 c #ffd732",
"F7 c #ffd834",
"G7 c #ffda35",
"H7 c #ffd61e",
"I7 c #ffd000",
"J7 c #ffd100",
"K7 c #ffc700",
"L7 c #ff9700",
"M7 c #b8b83c",
"N7 c #006ce0",
"O7 c #007cfa",
"P7 c #006cf0",
"Q7 c #0067ec",
"R7 c #0061e9",
"S7 c #035ce2",
"T7 c #0956d9",
"U7 c #1345be",
"V7 c #f79906",
"W7 c #ea8b10",
"X7 c #e67714",
"Y7 c #e96915",
"Z7 c #ee6616",
"a7 c #fd6612",
"b7 c #ff3527",
"c7 c #fc2531",
"d7 c #cf0e62",
"e7 c #b20671",
"f7 c #ffd62e",
"g7 c #ffd934",
"h7 c #ffda36",
"i7 c #ffdc38",
"j7 c #ffdd3a",
"k7 c #ffda21",
"l7 c #ffd400",
"m7 c #ffd500",
"n7 c #ffcc00",
"o7 c #feac01",
"p7 c #1b77c6",
"q7 c #007ffa",
"r7 c #007ffd",
"s7 c #0062e9",
"t7 c #035be2",
"u7 c #0a55d8",
"v7 c #164cbe",
"w7 c #fd9c01",
"x7 c #ff8d01",
"y7 c #ff4f1c",
"z7 c #ffd627",
"08 c #ffdb37",
"18 c #ffdd39",
"28 c #ffe03c",
"38 c #ffe13d",
"48 c #ffdf2b",
"58 c #ffd903",
"68 c #ffd900",
"78 c #ffd300",
"88 c #d1b228",
"98 c #007bea",
":8 c #006ef1",
";8 c #0068ed",
"A8 c #005fe5",
"B8 c #0553d2",
"C8 c #85636a",
"D8 c #ff9204",
"E8 c #ff750b",
"F8 c #fc2630",
"G8 c #eb1c43",
"H8 c #cf0e61",
"I8 c #fdd11d",
"J8 c #ffde3a",
"K8 c #ffdf3b",
"L8 c #ffe437",
"M8 c #ffde0b",
"N8 c #ffdd00",
"O8 c #ffdc00",
"P8 c #b8c53e",
"Q8 c #0083eb",
"R8 c #008df9",
"S8 c #008afb",
"T8 c #0079f9",
"U8 c #0073f3",
"V8 c #0567e0",
"W8 c #7b7777",
"X8 c #e77a25",
"Y8 c #ff7410",
"Z8 c #ff9500",
"a8 c #ff8d00",
"b8 c #ff6811",
"c8 c #ff5c16",
"d8 c #ff3626",
"e8 c #ff2a2c",
"f8 c #f52238",
"g8 c #eb1c44",
"h8 c #de1651",
"i8 c #d00e61",
"j8 c #ffe03d",
"k8 c #ffe13e",
"l8 c #ffe23f",
"m8 c #ffe340",
"n8 c #ffe741",
"o8 c #ffe316",
"p8 c #ffe000",
"q8 c #c8ce30",
"r8 c #0087e7",
"s8 c #007efb",
"t8 c #4b83a8",
"u8 c #f3961a",
"v8 c #ff8614",
"w8 c #ff7815",
"x8 c #ff6c16",
"y8 c #ff9401",
"z8 c #ff8006",
"09 c #ff740b",
"19 c #ff4e1c",
"29 c #ff4221",
"39 c #ff3627",
"49 c #ff292c",
"59 c #fc2530",
"69 c #f42139",
"79 c #ea1c44",
"89 c #de1552",
"99 c #cb0e61",
":9 c #ffdf2e",
";9 c #ffe440",
"A9 c #ffe441",
"B9 c #ffe61f",
"C9 c #ffe300",
"D9 c #b9cb3e",
"E9 c #008eea",
"F9 c #0094f7",
"G9 c #f3a817",
"H9 c #ff9711",
"I9 c #ff8813",
"J9 c #ff7a15",
"K9 c #ff6317",
"L9 c #ff8e03",
"M9 c #ff720c",
"N9 c #ff6611",
"O9 c #ff5a17",
"P9 c #ff4d1c",
"Q9 c #ff4122",
"R9 c #fb2531",
"S9 c #f3213a",
"T9 c #e91b45",
"U9 c #dd1553",
"V9 c #f9d419",
"W9 c #ffe542",
"X9 c #ffe643",
"Y9 c #ffe744",
"Z9 c #ffe846",
"a9 c #ffe820",
"b9 c #ffe500",
"c9 c #66b086",
"d9 c #0096f0",
"e9 c #008ff9",
"f9 c #0985f6",
"g9 c #fbab10",
"h9 c #ff9a10",
"i9 c #ff8913",
"j9 c #ff7b14",
"k9 c #ff6d16",
"l9 c #ff8b04",
"m9 c #ff8902",
"n9 c #ff7d08",
"o9 c #ff700d",
"p9 c #ff6412",
"q9 c #ff3f22",
"r9 c #ff3328",
"s9 c #fb2532",
"t9 c #f2203b",
"u9 c #e81b47",
"v9 c #d81455",
"w9 c #ffe430",
"x9 c #ffe845",
"y9 c #ffe946",
"z9 c #ffea48",
"0: c #ffe916",
"1: c #ffe700",
"2: c #f5e209",
"3: c #0094e5",
"4: c #0099f4",
"5: c #0086fd",
"6: c #0782f7",
"7: c #4287bd",
"8: c #6f8491",
"9: c #967e6d",
":: c #e57229",
";: c #ff6217",
"A: c #ff8d02",
"B: c #ff7a09",
"C: c #ff6e0e",
"D: c #ff6213",
"E: c #ff5619",
"F: c #ff491e",
"G: c #ff3d23",
"H: c #ff3129",
"I: c #ff272d",
"J: c #f92433",
"K: c #f1203d",
"L: c #e61a49",
"M: c #f8d813",
"N: c #ffe944",
"O: c #ffea47",
"P: c #ffeb48",
"Q: c #ffee46",
"R: c #ffe906",
"S: c #ffe900",
"T: c #6fb77f",
"U: c #009aef",
"V: c #0090f8",
"W: c #0089fc",
"X: c #007efc",
"Y: c #0078f8",
"Z: c #0e69e1",
"a: c #e46c28",
"b: c #ff8e00",
"c: c #ff8305",
"d: c #ff770a",
"e: c #ff6b0f",
"f: c #ff5f15",
"g: c #ff531a",
"h: c #ff471f",
"i: c #ff3a25",
"j: c #ff2e2a",
"k: c #fe262e",
"l: c #f82335",
"m: c #ee1f3f",
"n: c #d7184a",
"o: c #fee320",
"p: c #ffeb49",
"q: c #ffec49",
"r: c #ffec4a",
"s: c #ffed2b",
"t: c #d4d726",
"u: c #009ceb",
"v: c #009af4",
"w: c #008bfb",
"x: c #0073f4",
"y: c #0069ec",
"z: c #9c7e59",
"0; c #ff8b01",
"1; c #ff7f07",
"2; c #ff730c",
"3; c #ff6711",
"4; c #ff5b16",
"5; c #ff4f1b",
"6; c #ff4321",
"7; c #ff3726",
"8; c #ff2b2b",
"9; c #fd262f",
":; c #f42238",
";; c #d21b49",
"A; c #ffe930",
"B; c #ffed4a",
"C; c #ffed4b",
"D; c #ffee4b",
"E; c #fff048",
"F; c #ffea01",
"G; c #f8e407",
"H; c #009eea",
"I; c #009bf3",
"J; c #007bfa",
"K; c #0074f4",
"L; c #236fcb",
"M; c #f78e07",
"N; c #ff8603",
"O; c #ff7b08",
"P; c #ff6f0e",
"Q; c #ff6313",
"R; c #ff5818",
"S; c #ff4c1d",
"T; c #ff4022",
"U; c #ff3427",
"V; c #ff282d",
"W; c #f12436",
"X; c #d61f46",
"Y; c #cd1c50",
"Z; c #f9cd05",
"a; c #ffec38",
"b; c #ffee4c",
"c; c #ffef4c",
"d; c #ffeb0f",
"e; c #fee901",
"f; c #00a0ea",
"g; c #009cf2",
"h; c #0086fe",
"i; c #0081fe",
"j; c #007bf9",
"k; c #0f73e3",
"l; c #cc8b2f",
"m; c #ff8c01",
"n; c #ff8106",
"o; c #e8731e",
"p; c #8c5a6a",
"q; c #c8583d",
"r; c #ec5127",
"s; c #f34627",
"t; c #ec3a2f",
"u; c #ed2d33",
"v; c #e6243c",
"w; c #db2144",
"x; c #d91f4a",
"y; c #d31b51",
"z; c #fec705",
"0A c #ffed3c",
"1A c #ffef4d",
"2A c #ffec1c",
"3A c #ffea00",
"4A c #00a0ed",
"5A c #009cf3",
"6A c #0085fe",
"7A c #0081fd",
"8A c #1d7edc",
"9A c #d2902b",
":A c #ff9000",
";A c #ec8314",
"AA c #9e6e5c",
"BA c #1b54c7",
"CA c #154ac6",
"DA c #1d42ba",
"EA c #253aae",
"FA c #2c32a3",
"GA c #332b98",
"HA c #e52340",
"IA c #e32244",
"JA c #df1e4b",
"KA c #d31952",
"LA c #ffb903",
"MA c #ffec37",
"NA c #ffed21",
"OA c #fce502",
"PA c #00a0ef",
"QA c #0093f7",
"RA c #008cfb",
"SA c #0084fe",
"TA c #4382b8",
"UA c #667f92",
"VA c #5175a4",
"WA c #0a63e0",
"XA c #0559df",
"YA c #0e51d2",
"ZA c #1649c5",
"aA c #1e41b9",
"bA c #2539ae",
"cA c #2c32a1",
"dA c #e7233c",
"eA c #e92144",
"fA c #e21d4b",
"gA c #f9a702",
"hA c #ffa901",
"iA c #ffea2b",
"jA c #fff04e",
"kA c #fff14e",
"lA c #ffed1d",
"mA c #ebdb12",
"nA c #009ef1",
"oA c #0097f5",
"pA c #0091f8",
"qA c #007ffc",
"rA c #0079f8",
"sA c #0071f3",
"tA c #0069ee",
"uA c #0061e8",
"vA c #0758dd",
"wA c #0f50d0",
"xA c #1748c4",
"yA c #1f40b8",
"zA c #eb1f44",
"0B c #df1a4c",
"1B c #ff9900",
"2B c #fee819",
"3B c #ffec15",
"4B c #b2c548",
"5B c #009af3",
"6B c #0094f6",
"7B c #008dfa",
"8B c #0087fd",
"9B c #0082fe",
":B c #007dfb",
";B c #0077f7",
"AB c #006ff2",
"BB c #0067ed",
"CB c #015ee6",
"DB c #0956da",
"EB c #114ecc",
"FB c #ea1d43",
"GB c #fee50c",
"HB c #fff042",
"IB c #ffea06",
"JB c #3fa6b5",
"KB c #0095f6",
"LB c #0090f9",
"MB c #008afc",
"NB c #0083ff",
"OB c #0080fd",
"PB c #007af9",
"QB c #0074f5",
"RB c #006def",
"SB c #0063e9",
"TB c #fee507",
"UB c #fff043",
"VB c #fff14f",
"WB c #fff03f",
"XB c #fdd701",
"YB c #fee70b",
"ZB c #fff14a",
"aB c #ffed24",
"bB c #ffed1f",
"cB c #fcd408",
"dB c #fde501",
"                                                                                                ",
"                                                              dB                                ",
"                                                            cBbB                                ",
"                                                            aBZBYB                              ",
"                                                          XBWBVBUBTB                            ",
"                                      SBRBQBPBOBNBMBLBKBJBIBVBVBVBHBGB                          ",
"                FB              EBDBCBBBAB;B:B9B8B7B6B5B4B3BVBVBVBVBZB2B  1B                    ",
"              0BzA          yAxAwAvAuAtAsArAqANBMBpAoAnAmAlAVBVBVBkAjAjAiAhAgA                  ",
"              fAeAdA    cAbAaAZAYAXAWAVAUATAOBSARAQA5BPAOANAVBkAjAjAjAjAjAMALA                  ",
"            KAJAIAHA  GAFAEADACABAAA;A:A9A8A7A6A7B6B5A4A3A2AjAjAjAjAjA1A1A1A0Az;                ",
"            y;x;w;v;u;t;s;r;q;p;o;n;m;l;k;j;i;h;7BKBg;f;e;d;jAjAjA1A1A1Ac;b;b;a;Z;              ",
"            Y;X;W;V;U;T;S;R;Q;P;O;N;M;L;K;J;7A6A7B6BI;H;G;F;E;1A1A1Ac;b;b;D;C;B;A;              ",
"            ;;:;9;8;7;6;5;4;3;2;1;0;z:y:x:PBOBSAw:QAv:u:t:3As:1Ac;b;b;C;C;B;r:q:p:o:            ",
"          n:m:l:k:j:i:h:g:f:e:d:c:b:a:Z:sAY:X:NBW:V:oAU:T:S:R:Q:D;C;C;B;r:q:p:P:O:N:M:          ",
"          L:K:J:I:H:G:F:E:D:C:B:N;A:;:::9:8:7:6:5:7BQA4:3:2:1:0:B;r:q:p:P:z9O:y9y9x9w9          ",
"        v9u9t9s9I:r9q9S;R;p9o9n9m9l9;:k9j9i9h9g9f9W:e96Bd9c9b9b9a9p:P:z9O:y9Z9x9Y9X9W9V9        ",
"        U9T9S9R9V;U;Q9P9O9N9M91;0;L9K9k9J9I9H9G97ASAMBe9F9E9D9C9C9B9O:y9x9x9Y9X9W9A9;9:9        ",
"      9989796959493929194;3;09z8m;y8K9x8w8v8u8t8s8i;SAW:7BpAr8q8p8p8o8n8Y9X9W9A9m8l8k8j8        ",
"      i8h8g8f859e8d86;5;c8b809n;a8Z8Y8x8X8W8V8U8T8s8i;NB8BS8R8Q8P8O8N8M8L8A9m8l8k8j8K8J8I8      ",
"      H8h8G8f8F8e8d86;5;c8b8E8n;a8Z8D8C8B8A8;8:8QBrA:BOB9BNB6A8B9888786858483828K8J81808z7      ",
"      i8h8g8f859e8d829y74;b809n;x7Z8w7v7u7t7s7;8:8x:;Bj;:Br77A9Bq7p7o7n7m7l7k7j7i708h7g7f7      ",
"    e7d7897969c749b72919O9a7Z7Y7X7W7V7U7wAT7S7R7Q7P7sAQB;BPBJ;O7:BN7M7L7K7J7I7H7G7F7E7D7C7B7    ",
"    A7;7:7T9S9R9V;U;T;97877767574737271707wAu7z6y6x6tAw6v6u6QBt6s6r6q6p6o6K7n6n7m6l6C7k6j6i6    ",
"    h6g6f6u9t9e6I:d6c6b6a6Z6Y6X6W6V6U6T6S6R6Q6P6O6N6uAx6;8M6P7L6:8K6J6I6H6G6F6E6D6C6B6A6;6:6    ",
"    968676L:66J:564636261606z5y5x5w5v5U6T6u5xAt5YAu7s5r5q5s7p5x6x6o5n53Am5l5k5j5i5h5g5f5e5d5    ",
"    c5b5a5Z5Y5l:k:X5W5V5U5T5S5R5Q5P5w5O5N5M5DAL507K5YAJ5I5s5z6S7r5H5G51:K7F5F5E5E5D5C5B5A5;5    ",
"      :59585756555e8d845352919251505z4y4FAx4w4v4u4t4s4r4Q6q4p4o4P6n4m4l4n6k4j4i4k5p6h4g4f4e4    ",
"      d4i8c4b4S9R9I:r9a4Z4Y4X4W409V4U4T4S4R4Q4P4m5k5O4N4M4ZA07L4K4J4I4N8n7k4H4m5G4F4E4D4C4B4    ",
"      A4;4:4L:669456847436h:R5642;54m9441B342414F5F4k504z3aAy3x3u5w3v3u3t3j4F5j4H4j4s3r3q3      ",
"      p3o3n3m3l36555e839k3j3i3h3g3f3c:b:e3d3c3b3G6a3Z3Y3X3U6W3V3U3T3I7J7S3P4R3Q3P4R3P3O3N3      ",
"      M3L3i889b4S9e6I:4636h:X4K3J3I3H3G3F3E3D3C3B3A3;3:39383FAV673635343H4Q3G6l514l5332313      ",
"        03z2y2x2w2v29;8;d8Q9S;u2t2s2r2q2p2o2n2m2l2k2j2i2h2g2GAf2e2d2i5d214l5c2c2b2b3a2Z2        ",
"        Y2X2W2V279U2s9I:46Z4T2S2O9R2Q2P2O2N2M2L2K2J2I2H2G2k2F2E2D2p6k5H4Z2Z2b2b2H6C224B2        ",
"          A2g676x2w2;29;e8U;c6F:g::2a792827272625242L232221202P4F5H4H4b22424z1C2y1y1x1          ",
"          w1v1W2V2u1t1s156X57;29r1R5q1b8p1o1n1m1l1k1j1i1h1H6b3Z2l5G6b2C2g1g1c3f1d3e1d1          ",
"            c1b1a1Z5l3f8c7I:46i:6;P9Z1f:b8o9f3z8Y1b:44X1W1f134g1H6g1343434V1o6U1L7T1S1          ",
"            R1Q1i8:7P1O1v255N1d6Z4M1P9Z1q13;C:L1n9c:K1J144Z8U1W1W11BW1W1W11BZ8e3I1H1G1          ",
"              F1E1D1C1u1t9949;e8r936M197R5:2p9e:M9B11;A1m9a8:A;1:1e3e3Z8Z84491817161            ",
"                51;441m331S9J:k:e8r9Z46;r1g:O921b8C:2;B:54c:11m90;a8b:J101z0n;1;y0              ",
"                  x0;7:4w07569s1v049d6i:Q9F:S2Z1u0Q;b8t0M9L1B:n9z8s0r0s0d:L1q0p0                ",
"                    o0i8f6w0n0U2J:9;V;467;m0T2S;X4u2u0W4l0k0t0o92;E809j0i0h0g0                  ",
"                      f0e0f6w075S9d0F8I:X5U;i:Q9c0S;b0E:O9q121Q;l0a0Z0Y0X0                      ",
"                        W0V0f6U0G8T0;2R95649S0b7Z4T;T2R019Q0P0u2O0N0M0L0                        ",
"                            K0J0I0T9H0f8J:55I:e846b7W5m029T2G0F0E0D0C0                          ",
"                                B0A0L:n0t9;0:09;I:49j:d6b7W5369080                              ",
"                                      70605040;2s1F830201000                                    ",
"                                                                                                ",
"                                                                                                "};
