/* XPM */
static char *image[] = {
"48 48 681 2",
"   c None",
"00 c #090997",
"10 c #2c2ccc",
"20 c #3232d7",
"30 c #2828d7",
"40 c #2121cb",
"50 c #1111ad",
"60 c #060696",
"70 c #1919ad",
"80 c #1e1ed0",
"90 c #0d0da9",
":0 c #a1d0fe",
";0 c #b0d7fe",
"A0 c #1515a7",
"B0 c #3131d2",
"C0 c #1a1acf",
"D0 c #06069c",
"E0 c #5eaefe",
"F0 c #6eb6fe",
"G0 c #2525c0",
"H0 c #4141eb",
"I0 c #1010bd",
"J0 c #3d3de4",
"K0 c #4040eb",
"L0 c #4444ea",
"M0 c #e2e2fb",
"N0 c #2893fe",
"O0 c #a7d3fe",
"P0 c #0d0d9c",
"Q0 c #3c3ce4",
"R0 c #3d3dea",
"S0 c #2828e7",
"T0 c #8c8cf2",
"U0 c #45a2fe",
"V0 c #1818ad",
"W0 c #3b3be3",
"X0 c #1c1ce7",
"Y0 c #1b1be6",
"Z0 c #d3d3fa",
"a0 c #c0c0e7",
"b0 c #1a1aa6",
"c0 c #3e3eea",
"d0 c #3c3cea",
"e0 c #5454ec",
"f0 c #7d7df0",
"g0 c #8b8bf2",
"h0 c #7bbdfe",
"i0 c #7676f0",
"j0 c #0a0adf",
"k0 c #01019b",
"l0 c #0c0c98",
"m0 c #3939e3",
"n0 c #3838ea",
"o0 c #f0f0fd",
"p0 c #c0dffe",
"q0 c #4fa7fe",
"r0 c #3e9efe",
"s0 c #5757ed",
"t0 c #0505d8",
"u0 c #04048a",
"v0 c #3434d5",
"w0 c #3a3aea",
"x0 c #3f3fea",
"y0 c #8282f1",
"z0 c #c7c7f9",
"01 c #bbdcfe",
"11 c #c4e1fc",
"21 c #8bc2fa",
"31 c #9ccbfb",
"41 c #3c9cfb",
"51 c #2b95fe",
"61 c #0101cd",
"71 c #2121bb",
"81 c #3939ea",
"91 c #3737ea",
":1 c #3434e9",
";1 c #8383f1",
"A1 c #d5d5fa",
"B1 c #aed6fe",
"C1 c #a4d1fd",
"D1 c #a2cefa",
"E1 c #9fcdfa",
"F1 c #bfdcf8",
"G1 c #cee3f8",
"H1 c #d1e4f8",
"I1 c #b1d4f7",
"J1 c #7cbaf9",
"K1 c #3599fd",
"L1 c #3737e9",
"M1 c #0000b0",
"N1 c #090993",
"O1 c #3838e5",
"P1 c #a6d1fd",
"Q1 c #8ac2fa",
"R1 c #c0dbf8",
"S1 c #c6dff8",
"T1 c #b9d7f7",
"U1 c #c8e0f8",
"V1 c #bed9f7",
"W1 c #a7cff8",
"X1 c #75b6f7",
"Y1 c #5aabfb",
"Z1 c #59acfe",
"a1 c #3198fe",
"b1 c #3636e9",
"c1 c #0000de",
"d1 c #2525be",
"e1 c #3333e9",
"f1 c #3030e9",
"g1 c #6969ef",
"h1 c #f1f1fd",
"i1 c #cbe5fe",
"j1 c #a8d2fc",
"k1 c #9ecbf7",
"l1 c #c1ddf8",
"m1 c #b8d7f7",
"n1 c #bedaf8",
"o1 c #99c8f7",
"p1 c #98c7f7",
"q1 c #6db1f8",
"r1 c #66aff9",
"s1 c #67b2fd",
"t1 c #369afe",
"u1 c #3535e9",
"v1 c #0000b6",
"w1 c #080893",
"x1 c #3434e4",
"y1 c #3232e9",
"z1 c #9f9ff4",
"02 c #a3cffc",
"12 c #a5cdf7",
"22 c #c2def8",
"32 c #aed2f8",
"42 c #b6d6f9",
"52 c #add1f9",
"62 c #80bbf8",
"72 c #7cb9f9",
"82 c #78b8f8",
"92 c #50a6fc",
":2 c #7cbdfe",
";2 c #389bfe",
"A2 c #4343ea",
"B2 c #0202de",
"C2 c #000090",
"D2 c #1c1cb1",
"E2 c #3131e9",
"F2 c #2f2fe9",
"G2 c #acacf6",
"H2 c #c7e2fd",
"I2 c #b9d9fa",
"J2 c #bbd9f8",
"K2 c #a8cff8",
"L2 c #a9d0f7",
"M2 c #8bc2f8",
"N2 c #76b6f9",
"O2 c #6db3f8",
"P2 c #8ec3f9",
"Q2 c #5aaafa",
"R2 c #6cb5fe",
"S2 c #5252ec",
"T2 c #0202ab",
"U2 c #2727cd",
"V2 c #2e2ee9",
"W2 c #2c2ce8",
"X2 c #2929e8",
"Y2 c #ababf6",
"Z2 c #95c9fd",
"a2 c #bbdafa",
"b2 c #9fcbf8",
"c2 c #a0cdf9",
"d2 c #73b5f9",
"e2 c #69b1f8",
"f2 c #88c0f9",
"g2 c #6eb3f8",
"h2 c #69b3fc",
"i2 c #82c0fe",
"j2 c #83c1ff",
"k2 c #71b8fe",
"l2 c #9090f3",
"m2 c #0606c8",
"n2 c #2d2de8",
"o2 c #2b2be8",
"p2 c #8f8ff3",
"q2 c #88c3fd",
"r2 c #b7d8f9",
"s2 c #b4d5f9",
"t2 c #a8cff7",
"u2 c #badafa",
"v2 c #7ab9f8",
"w2 c #63adf8",
"x2 c #86bff9",
"y2 c #6fb3f8",
"z2 c #7dbbf9",
"03 c #75b9fd",
"13 c #85c2ff",
"23 c #7ebeff",
"33 c #77bbff",
"43 c #4aa4fe",
"53 c #cfcff9",
"63 c #0a0ae4",
"73 c #0f0fa0",
"83 c #2a2ae8",
"93 c #2828e8",
":3 c #2525e8",
";3 c #2222e7",
"A3 c #3b3bea",
"B3 c #9ccdfe",
"C3 c #c6e0fa",
"D3 c #c4dffa",
"E3 c #b4d6f8",
"F3 c #a1ccf8",
"G3 c #8dc3f9",
"H3 c #71b4f9",
"I3 c #6cb2f8",
"J3 c #82bef9",
"K3 c #5baafa",
"L3 c #80c0ff",
"M3 c #79bcff",
"N3 c #efeffd",
"O3 c #0303e4",
"P3 c #01019e",
"Q3 c #1414af",
"R3 c #2727e8",
"S3 c #2626e8",
"T3 c #2424e7",
"U3 c #2323e7",
"V3 c #2121e7",
"W3 c #1f1fe7",
"X3 c #c6c6f9",
"Y3 c #c1dcf9",
"Z3 c #c7e1fa",
"a3 c #b7d8fa",
"b3 c #85bff9",
"c3 c #65aff8",
"d3 c #89c1fa",
"e3 c #65aff9",
"f3 c #62aefa",
"g3 c #70b7fe",
"h3 c #65b1ff",
"i3 c #69b4ff",
"j3 c #76bafe",
"k3 c #8b8bf4",
"l3 c #0101e4",
"m3 c #0202e4",
"n3 c #0404e4",
"o3 c #0505e4",
"p3 c #0606e4",
"q3 c #0707e4",
"r3 c #0b0be5",
"s3 c #0d0de5",
"t3 c #0e0ee5",
"u3 c #1111e5",
"v3 c #1212e5",
"w3 c #0404ab",
"x3 c #3131c2",
"y3 c #4e4ef5",
"z3 c #3c3cef",
"04 c #2929e9",
"14 c #2020e7",
"24 c #1e1ee7",
"34 c #1d1de7",
"44 c #4545ea",
"54 c #94c9fd",
"64 c #b1d4f8",
"74 c #c3dffa",
"84 c #afd4fa",
"94 c #80bdf9",
":4 c #78b8f9",
";4 c #76b8f9",
"A4 c #5aa9f9",
"B4 c #63b1fe",
"C4 c #50a7fe",
"D4 c #e3e4fe",
"E4 c #9394fe",
"F4 c #797af9",
"G4 c #4444ef",
"H4 c #0f0fe5",
"I4 c #0808e4",
"J4 c #0909e4",
"K4 c #0a0ae5",
"L4 c #0c0ce5",
"M4 c #2424eb",
"N4 c #3636ef",
"O4 c #5454f7",
"P4 c #5455f7",
"Q4 c #5556f7",
"R4 c #5657f7",
"S4 c #4b4bf4",
"T4 c #4141f1",
"U4 c #1e1ebd",
"V4 c #4545d4",
"W4 c #6767fe",
"X4 c #6666fe",
"Y4 c #5151f8",
"Z4 c #3e3ef2",
"a4 c #2b2bec",
"b4 c #acacf7",
"c4 c #94c7fc",
"d4 c #c5dffa",
"e4 c #b9d8f9",
"f4 c #a1cdf8",
"g4 c #9acafa",
"h4 c #95c7fa",
"i4 c #80bdfa",
"j4 c #63adf9",
"k4 c #54a9fd",
"l4 c #68b3ff",
"m4 c #71b8ff",
"n4 c #87c3fe",
"o4 c #a0a1fe",
"p4 c #9495fe",
"q4 c #8485fa",
"r4 c #5a5af3",
"s4 c #4141f2",
"t4 c #5e5ffa",
"u4 c #6b6cfd",
"v4 c #6c6dfd",
"w4 c #6d6efd",
"x4 c #6e6ffd",
"y4 c #3838c3",
"z4 c #4c4ce0",
"05 c #6565fe",
"15 c #6363fe",
"25 c #6161fe",
"35 c #5f5ffe",
"45 c #eaeafe",
"55 c #bcddfe",
"65 c #d5e8fb",
"75 c #cbe2fb",
"85 c #bedcfa",
"95 c #96c7fa",
":5 c #71b5f8",
";5 c #91c5fa",
"A5 c #86c0fa",
"B5 c #54a8fc",
"C5 c #64b1ff",
"D5 c #62b0ff",
"E5 c #75baff",
"F5 c #4ca6fe",
"G5 c #d6d7fe",
"H5 c #9595fe",
"I5 c #9596fe",
"J5 c #8a8bfd",
"K5 c #8384fd",
"L5 c #8081fd",
"M5 c #797afd",
"N5 c #7374fd",
"O5 c #6f70fd",
"P5 c #7071fd",
"Q5 c #7172fd",
"R5 c #3939c3",
"S5 c #7677e0",
"T5 c #b1d7fd",
"U5 c #c8e1fa",
"V5 c #c5e0fb",
"W5 c #93c7fa",
"X5 c #8cc2fa",
"Y5 c #74b6f9",
"Z5 c #48a3fe",
"a5 c #63b0ff",
"b5 c #60afff",
"c5 c #a2a3fe",
"d5 c #9697fe",
"e5 c #9798fe",
"f5 c #9898fe",
"g5 c #9899fe",
"h5 c #999afe",
"i5 c #4f4fc3",
"j5 c #6566d3",
"k5 c #9b9bf0",
"l5 c #bbdbfc",
"m5 c #c3def9",
"n5 c #b0d3f8",
"o5 c #add3fa",
"p5 c #9fcdfb",
"q5 c #9acafb",
"r5 c #88c1fa",
"s5 c #50a6fb",
"t5 c #61afff",
"u5 c #5eafff",
"v5 c #6eb6ff",
"w5 c #61b0fe",
"x5 c #c6c7ed",
"y5 c #8182e8",
"z5 c #8d8ef2",
"06 c #8a8bee",
"16 c #8181e3",
"26 c #7f7fe0",
"36 c #7f80e0",
"46 c #8080e0",
"56 c #8484e3",
"66 c #9394f6",
"76 c #9c9dfe",
"86 c #4f50c3",
"96 c #5454c6",
":6 c #9b9cfe",
";6 c #9b9bfe",
"A6 c #9a9bfe",
"B6 c #7778e2",
"C6 c #3a3ab2",
"D6 c #5252b1",
"E6 c #acd4fc",
"F6 c #c1ddf9",
"G6 c #94c7f9",
"H6 c #6db2f8",
"I6 c #7ab9fa",
"J6 c #81bdfa",
"K6 c #42a0fe",
"L6 c #5faeff",
"M6 c #65b2ff",
"N6 c #8ec6ff",
"O6 c #6666bf",
"P6 c #29299f",
"Q6 c #4545af",
"R6 c #6767c2",
"S6 c #6868c2",
"T6 c #6868c3",
"U6 c #6969c3",
"V6 c #6a6ac3",
"W6 c #6e6ec7",
"X6 c #8484e1",
"Y6 c #999afa",
"Z6 c #9d9efe",
"a6 c #9e9efe",
"b6 c #9e9ffe",
"c6 c #9fa0fe",
"d6 c #9798f6",
"e6 c #898ae6",
"f6 c #4141b4",
"g6 c #2323a1",
"h6 c #3535ad",
"i6 c #3334ac",
"j6 c #4848aa",
"k6 c #a5d0fb",
"l6 c #d2e6fa",
"m6 c #cbe3fa",
"n6 c #a6d0fa",
"o6 c #90c4fa",
"p6 c #85c0fa",
"q6 c #66b0fa",
"r6 c #53a8fe",
"s6 c #63b1ff",
"t6 c #6ab4ff",
"u6 c #75b9ff",
"v6 c #7bbdff",
"w6 c #b3d9fe",
"x6 c #c2c2e3",
"y6 c #1f1f98",
"z6 c #3030a2",
"07 c #4040ab",
"17 c #5656b8",
"27 c #5757b8",
"37 c #5858b8",
"47 c #5858b9",
"57 c #5f5fc0",
"67 c #5c5cc1",
"77 c #5354bc",
"87 c #4f50ba",
"97 c #3d3dad",
":7 c #2b2b9d",
";7 c #a7d1fb",
"A7 c #bad9f8",
"B7 c #bcdbfa",
"C7 c #9ecbfa",
"D7 c #a3cffb",
"E7 c #97c9fb",
"F7 c #6db4fb",
"G7 c #5fafff",
"H7 c #61b0ff",
"I7 c #67b3ff",
"J7 c #6fb7ff",
"K7 c #76baff",
"L7 c #4ea6fe",
"M7 c #6a6ab9",
"N7 c #acd3fc",
"O7 c #cde3fa",
"P7 c #c0ddf9",
"Q7 c #85bef9",
"R7 c #71b4f8",
"S7 c #6ab2f8",
"T7 c #53a7fb",
"U7 c #66b2ff",
"V7 c #6db6ff",
"W7 c #73b9ff",
"X7 c #7abcff",
"Y7 c #81c0ff",
"Z7 c #9fcfff",
"a7 c #212197",
"b7 c #d8e9fb",
"c7 c #cee4fb",
"d7 c #a3cefa",
"e7 c #95c8fa",
"f7 c #8cc3fa",
"g7 c #5cacfc",
"h7 c #72b8ff",
"i7 c #78bcff",
"j7 c #7fbfff",
"k7 c #86c2ff",
"l7 c #8cc6ff",
"m7 c #90c7ff",
"n7 c #c4c4e3",
"o7 c #06068b",
"p7 c #efeff7",
"q7 c #b8dbfd",
"r7 c #bfdaf8",
"s7 c #bad8f8",
"t7 c #91c4f8",
"u7 c #7cbaf8",
"v7 c #79b9f8",
"w7 c #58a9fb",
"x7 c #7dbeff",
"y7 c #84c2ff",
"z7 c #8bc5ff",
"08 c #91c8ff",
"18 c #dfeffe",
"28 c #8b8bc9",
"38 c #00008a",
"48 c #07078b",
"58 c #07078c",
"68 c #9393cd",
"78 c #d0e7fe",
"88 c #bfddfb",
"98 c #cce3fa",
":8 c #abd2fa",
";8 c #96c6f9",
"A8 c #92c6f9",
"B8 c #6fb5fb",
"C8 c #88c4ff",
"D8 c #8fc7ff",
"E8 c #97cbff",
"F8 c #c1e0ff",
"G8 c #5badfe",
"H8 c #4444a8",
"I8 c #03038a",
"J8 c #4949ab",
"K8 c #acd5fe",
"L8 c #bcdafa",
"M8 c #b0d4f9",
"N8 c #8fc4f9",
"O8 c #94c6f9",
"P8 c #86bffa",
"Q8 c #94caff",
"R8 c #9bcdff",
"S8 c #a2d0ff",
"T8 c #9dceff",
"U8 c #1d1d96",
"V8 c #1e1e96",
"W8 c #0a0a8d",
"X8 c #0d0d8f",
"Y8 c #0e0e8f",
"Z8 c #b4b4dc",
"a8 c #96c9fd",
"b8 c #9dccfb",
"c8 c #6fb4fb",
"d8 c #73b6f9",
"e8 c #60adfa",
"f8 c #a0d0ff",
"g8 c #a7d3ff",
"h8 c #add6ff",
"i8 c #c6e3ff",
"j8 c #6ab4fe",
"k8 c #aaaad7",
"l8 c #1f1f97",
"m8 c #212198",
"n8 c #0f0f8f",
"o8 c #101090",
"p8 c #b5b5dc",
"q8 c #67b3fe",
"r8 c #97caff",
"s8 c #a5d2ff",
"t8 c #abd5ff",
"u8 c #b9dcff",
"v8 c #cbe5ff",
"w8 c #74b9fe",
"x8 c #4a4aab",
"y8 c #232399",
"z8 c #0d0d8e",
"09 c #121291",
"19 c #141492",
"29 c #252599",
"39 c #f0f0f8",
"49 c #57abfe",
"59 c #9accff",
"69 c #b0d8ff",
"79 c #b7dbff",
"89 c #cbe4ff",
"99 c #eff7fe",
":9 c #c7c7e5",
";9 c #242499",
"A9 c #25259a",
"B9 c #161693",
"C9 c #171793",
"D9 c #181894",
"E9 c #a8a8d6",
"F9 c #79bcfe",
"G9 c #80bfff",
"H9 c #b5daff",
"I9 c #bedeff",
"J9 c #a2d0fe",
"K9 c #5b5bb3",
"L9 c #26269a",
"M9 c #27279b",
"N9 c #32329f",
"O9 c #04048b",
"P9 c #08088c",
"Q9 c #191994",
"R9 c #1a1a95",
"S9 c #4545a8",
"T9 c #a9d4fe",
"U9 c #6bb5ff",
"V9 c #badcff",
"W9 c #c2e0ff",
"X9 c #b2d8ff",
"Y9 c #a0a0d3",
"Z9 c #29299c",
"a9 c #0b0b8e",
"b9 c #1c1c96",
"c9 c #5555b0",
"d9 c #a9d4ff",
"e9 c #dcedff",
"f9 c #d4e9ff",
"g9 c #9accfe",
"h9 c #8dc6fe",
"i9 c #d6d6ec",
"j9 c #2b2b9c",
"k9 c #0c0c8e",
"l9 c #131391",
"m9 c #d3e9fe",
"n9 c #5aacfe",
"o9 c #80bffe",
"p9 c #c3e1fe",
"q9 c #0f0f90",
"r9 c #5a5ab2",
"s9 c #f1f1f8",
"t9 c #ffffff",
"u9 c #c9c9e6",
"v9 c #6d6dba",
"w9 c #111190",
"x9 c #3a3aa4",
"y9 c #5d5db4",
"z9 c #5e5eb4",
"0: c #6060b4",
"1: c #4646a9",
"2: c #2c2c9d",
"3: c #2d2d9d",
"4: c #2e2e9e",
"5: c #2f2f9e",
"6: c #30309f",
"7: c #31319f",
"8: c #1c1c95",
"9: c #03038b",
":: c #151592",
";: c #2a2a9c",
"A: c #3232a0",
"B: c #3333a0",
"C: c #3434a1",
"D: c #3535a1",
"E: c #3636a2",
"F: c #3737a2",
"G: c #3838a3",
"H: c #3f3fa6",
"I: c #3838a2",
"J: c #181893",
"K: c #05058b",
"L: c #06068c",
"M: c #1b1b95",
"N: c #222298",
"O: c #2d2d9e",
"P: c #3939a3",
"Q: c #3a3aa3",
"R: c #3b3ba4",
"S: c #3c3ca4",
"T: c #3d3da5",
"U: c #3e3ea5",
"V: c #4040a6",
"W: c #3434a0",
"X: c #28289b",
"Y: c #202097",
"Z: c #09098d",
"a: c #000088",
"b: c #000089",
"                                                                                                ",
"                                        b:a:a:a:a:a:a:a:b:                                      ",
"                                a:Z:Y:X:W:V:U:T:S:R:Q:P:O:N:M:L:a:                              ",
"                            K:J:I:V:V:H:U:T:S:R:Q:G:F:E:D:C:B:A:;:::9:                          ",
"                        b:8:S:V:V:U:T:S:R:Q:P:G:F:E:D:C:B:7:6:5:4:3:2:::b:                      ",
"                      Z:W:V:H:U:T:S:R:Q:P:G:E:D:C:B:A:7:6:5:4:3:1:0:z9y9x9Z:                    ",
"                    w9S:H:U:T:R:Q:P:G:F:E:D:C:B:A:7:6:4:3:2:v9u9t9t9t9t9s9r9q9b:                ",
"                  J:U:T:S:R:Q:P:G:F:E:C:B:A:7:6:5:4:3:2:I:u9t9p9o9n9n9n9m9s9R:l9b:              ",
"                k9T:S:R:P:G:F:E:D:C:B:A:7:6:5:4:2:j9;:E:i9t9h9g9f9e9e9d9h9t9c9b9a9              ",
"              k9F:Q:P:G:F:E:D:C:B:7:6:5:4:3:2:j9;:Z9X:Y9t9o9X9W9V9V9V9U9T9t9S9R9Q9P9            ",
"            O9N9P:F:E:D:C:B:A:7:6:5:4:3:2:;:Z9X:M9L9K9t9T9J9I9V9V9H9G9F9t9E9D9C9B9l99:          ",
"          b:L9F:E:D:C:B:A:7:5:4:3:2:j9;:Z9X:M9L9A9;9:999F989V979695949993929::19l909z8a:        ",
"          w9E:C:B:A:7:6:5:4:3:2:j9;:Z9M9L9A9;9y8N:x8t9w8v8u8X9t8s8r8q8t9t9p8l909w9o8n8L:        ",
"        O96:B:A:7:6:5:3:2:j9;:Z9X:M9L9A9;9y8N:m8l8k899j8i8h8g8f8e8d8c8b8a8t9Z8n8Y8X8k9W8b:      ",
"        Q97:6:5:4:3:2:j9;:Z9X:M9A9;9y8N:m8Y:l8V8U839g9T8d9S8R8Q8P8O8N8M8L8K8t9J8a9W8Z:P9I8      ",
"      b:;:5:4:3:2:;:Z9X:M9L9A9;9y8N:m8Y:l8U8b9M:H8t9G8F8T8E8D8C8B8A8;8:898887868Z:P958P94838    ",
"      Y83:2:j9;:Z9X:M9L9A9y8N:m8Y:l8V8U8b9M:R9Q92818j8g808z7y7x7w7v7u7t7s7r7q7p7o7o74858P9K:    ",
"      M:j9;:X:M9L9A9;9y8N:m8Y:l8V8U8M:R9Q9D9C9B9n7g9m7l7k7j7i7h7g7f7e7d7c7b7q7t92958P9P9W8Z:    ",
"    a:y8X:M9L9A9;9y8N:Y:l8V8U8b9M:R9Q9D9C9B9::a7t9q8Z7Y7X7W7V7U7T7S7R7Q7P7O7N7t9H8P9Z:a9k9Y8I8  ",
"    L:L9A9;9y8N:m8Y:l8V8U8b9M:Q9D9C9B9::19l909M7t9L7Q8K7J7I7H7G7F7E7D7C7B7A7;7t91:a9k9Y8n8w958  ",
"    Z:;9:79787776757473727271707z6y619l9w9o8n8x6w6v6u6t6s6G7G7r6q6p6o6n6m6l6k6t9j6X8n8o8i6h6g6  ",
"    f6e6d6c6b6b6a6Z6Y6X6W6V6U6T6S6R617Q6y6P6O6t9w8N6M6G7L6G7G7K6J6I6H6G6F698E6t9D6C6B6A6;6:696  ",
"    86c6b6a6Z6Z67676:6:6;666564636261606z5y5x599w5v5L6u5G7L6t5s5r5q5p5o5n5m5l5t9k5A6A6:67676j5  ",
"    i5a6Z6Z67676:6:6A6A6h5h5g5g5f5e5e5d5d5c5t9h9x7G7G7b5t5a5Z5q6Y5X5W5V5U5s7T5t9A6:6:676Z6a6S5  ",
"    R5Q5P5P5O5N5M5L5K5J5g5g5f5e5d5d5I5I5H5G599F5E5L6t5D5C5U9B5A5;5:5958575655545352525151505z4  ",
"    y4P5O5x4x4w4v4u4u4t4s4r4q4d5I5I5H5p4o4t9n4m4b5H7a5l4J7k4j4i4h4g4f4e4d4c499b4a4Z4Y405X4W4V4  ",
"    U4T4S4R4Q4P4O4N4M4L4K4J4I4H4G4F4E4E4D499C4U9s6U7v5E5B4A4;4:494847464F654t94434241404z3y3x3  ",
"    w3v3u3H4t3s3L4r3K4J4I4q3p3o3n3m3l3k3t9j3i3h3U9W7v6g3f3e3d3c3b3a3Z3Y3A518X324W3V3U3T3S3R3Q3  ",
"    P3H4t3s3L4r3K4J4q3p3o3n3O3m3l3l314N3p9L7t6m4M3L3w8K3J3I3H3G3F3E3D3C3B3t9A3V3;3T3:3R3938373  ",
"    a:63r3K4J4I4q3p3o3n3O3m3l3l3l3l3539943J733231303z2y2x2w2v2u2t2s2r2q2t9p2;3U3:3S39383o2n258  ",
"      m2J4I4q3o3n3O3m3l3l3l3l3l3l3l2t9k2D5v6j2i2h2g2f2e2d2c2b2a2m5t2Z2t9Y2U3T3S393X2o2W2V2U2    ",
"      T2p3o3n3O3m3l3l3l3l3l3l3O3S2t9n443Y7C8R2Q2P2O2N2M2L2e4K2J2I2H2t9G2T3S3R3X283W2V2F2E2D2    ",
"      C2B2m3l3l3l3l3l3l3l3m3n3A2N3w6;2Y7:29282y2726252423222120218t9z1:3R39383W2n2F2E2y1x1w1    ",
"        v1l3l3l3l3l3l3m3O3o3u1N378t1v6s1r1q1p1o1n1m1A7l1k1j1i1t9h1g1S39383o2n2F2f1y1e1u1d1      ",
"        C2c1l3l3l3l3O3o3p3b1N378a1Z1Y1X1W1V1U1T1S1R1Q1P118t9t9z1e193X2o2W2V2f1E2e1u1b1O1N1      ",
"          M1l3l3O3n3p3q3L1N378a1K1J1I1H1G1F1E1D1C1B1t9t9A1;1e1R3X283W2V2F2E2e1:1b1918171        ",
"          b:61n3o3q3J4L1N3785141N83121110178t9t9t9z0y0x0:3R39383W2n2F2E2y1:1u19181w0v0u0        ",
"            C2t0I4K4s0N378r0q0p0p0t9t9t9o0X3p2s0;3U3:3S39383o2n2F2f1y1e1u191n0w0A3m0l0          ",
"              k0j0i0t9p9a1h0t9o0g0f0e0o22414V3U3T3S393X2o2W2V2f1E2e1u1b1n081A3d0c0b0            ",
"                a0t9g951w6t9Z0u1Y0X024W3V3U3T3S3R3X283W2V2F2E2e1:1b19181A3d0c0W0V0              ",
"              t99949U078o0T0S0X034W3V3;3T3:3R39383W2n2F2E2y1:1u19181w0d0R0x0Q0P0                ",
"          t9t9O0N0h099M0L0Y034W314;3U3:3S39383o2n2F2f1y1e1u191n0w0A3R0c0K0J0P0                  ",
"      t9t9p949w878t9t9B9I02414V3U3T3S393X2o2W2V2f1E2e1u1b1n081A3d0c0K0H0G0a:                    ",
"  t9t9p9F0E018t9t9        D0C0T3S3R3X283W2V2F2E2e1:1b19181A3d0c0x0H0B0A0                        ",
"t9t9;0:099t9t9              a:908083W2n2F2E2y1:1u19181w0d0R0x0K0B070a:                          ",
"  t9t9t9t9                        60504030e1u191n0w0A3R02010V000                                ",
"                                        a:a:a:a:a:a:a:a:b:                                      ",
"                                                                                                "};
