/* XPM */
static char *image[] = {
"48 48 778 2",
"   c None",
"00 c #a54316",
"10 c #a63e05",
"20 c #a33700",
"30 c #b24e15",
"40 c #b65117",
"50 c #b64f17",
"60 c #b95217",
"70 c #b75217",
"80 c #b75115",
"90 c #b75117",
":0 c #b65115",
";0 c #b64f15",
"A0 c #b44f15",
"B0 c #b44e17",
"C0 c #b5511a",
"D0 c #b45119",
"E0 c #b4501a",
"F0 c #b25019",
"G0 c #b04e19",
"H0 c #b24e19",
"I0 c #b04e1a",
"J0 c #a63f0b",
"K0 c #9c3200",
"L0 c #9a3100",
"M0 c #9c3705",
"N0 c #9a3d12",
"O0 c #bc5f00",
"P0 c #c55b00",
"Q0 c #c65b00",
"R0 c #c65a00",
"S0 c #c55a00",
"T0 c #c55900",
"U0 c #c55800",
"V0 c #c45600",
"W0 c #c46000",
"X0 c #eeaa11",
"Y0 c #ffd638",
"Z0 c #ffcf38",
"a0 c #ffcd38",
"b0 c #ffcc38",
"c0 c #ffcb38",
"d0 c #ffc138",
"e0 c #ffb738",
"f0 c #ffb838",
"g0 c #ffb938",
"h0 c #ffba38",
"i0 c #ffbd38",
"j0 c #ffc438",
"k0 c #ffca38",
"l0 c #ffc538",
"m0 c #ffc638",
"n0 c #ffc738",
"o0 c #ffc838",
"p0 c #f8a70d",
"q0 c #ffb800",
"r0 c #ffb600",
"s0 c #ffb400",
"t0 c #ffb200",
"u0 c #ffb000",
"v0 c #ffaf00",
"w0 c #fb9300",
"x0 c #fb8f00",
"y0 c #fc8d00",
"z0 c #fb8d00",
"01 c #fb8c00",
"11 c #fb8e00",
"21 c #fea300",
"31 c #ffaa00",
"41 c #ffa900",
"51 c #ffab00",
"61 c #ffae00",
"71 c #ffad00",
"81 c #f8b93e",
"91 c #fdb402",
":1 c #ffb100",
";1 c #feaa00",
"A1 c #fea700",
"B1 c #fda600",
"C1 c #fda500",
"D1 c #fea600",
"E1 c #fb9200",
"F1 c #f98600",
"G1 c #f98800",
"H1 c #fc8c00",
"I1 c #fe9100",
"J1 c #ff8f00",
"K1 c #fe8e00",
"L1 c #ff9000",
"M1 c #ff9100",
"N1 c #fd8e00",
"O1 c #fc8b00",
"P1 c #fb8900",
"Q1 c #fa8600",
"R1 c #f98c00",
"S1 c #fc9e00",
"T1 c #fc9f00",
"U1 c #fda100",
"V1 c #fea500",
"W1 c #fda300",
"X1 c #fbb21a",
"Y1 c #fea900",
"Z1 c #fca200",
"a1 c #fb9e00",
"b1 c #fb9b00",
"c1 c #fb9c00",
"d1 c #fb9800",
"e1 c #f88500",
"f1 c #fc9100",
"g1 c #fe9000",
"h1 c #fd9000",
"i1 c #fc8a00",
"j1 c #f98000",
"k1 c #f67900",
"l1 c #f47600",
"m1 c #f16e00",
"n1 c #f26f00",
"o1 c #f67600",
"p1 c #f97c00",
"q1 c #fb8200",
"r1 c #fd8700",
"s1 c #fc8900",
"t1 c #fb8a00",
"u1 c #f98700",
"v1 c #f67e00",
"w1 c #fa9200",
"x1 c #fb9a00",
"y1 c #fa9800",
"z1 c #fa9700",
"02 c #fb9900",
"12 c #fc9d00",
"22 c #f8a00a",
"32 c #f7bb4a",
"42 c #fda200",
"52 c #f99600",
"62 c #f89300",
"72 c #f99300",
"82 c #f99500",
"92 c #fb8b00",
":2 c #f98900",
";2 c #f27700",
"A2 c #ee6f00",
"B2 c #eb6900",
"C2 c #ea6600",
"D2 c #e76300",
"E2 c #e76100",
"F2 c #e55f00",
"G2 c #e66000",
"H2 c #e96400",
"I2 c #ed6a00",
"J2 c #f47400",
"K2 c #f88000",
"L2 c #f78000",
"M2 c #f88a00",
"N2 c #f78f00",
"O2 c #f89000",
"P2 c #fa9600",
"Q2 c #f3a52b",
"R2 c #fb9d00",
"S2 c #f99900",
"T2 c #f79200",
"U2 c #f58c00",
"V2 c #f58b00",
"W2 c #f88e00",
"X2 c #f88900",
"Y2 c #ee7300",
"Z2 c #e46400",
"a2 c #e06200",
"b2 c #e46600",
"c2 c #e76700",
"d2 c #e96b00",
"e2 c #ec6e00",
"f2 c #ea6800",
"g2 c #e86500",
"h2 c #e66200",
"i2 c #e35f00",
"j2 c #e05e00",
"k2 c #df6000",
"l2 c #db5d00",
"m2 c #d85700",
"n2 c #dd5c00",
"o2 c #f68800",
"p2 c #f58900",
"q2 c #f68f00",
"r2 c #f89100",
"s2 c #f6a012",
"t2 c #f89400",
"u2 c #f68d00",
"v2 c #f48700",
"w2 c #c64b00",
"x2 c #ca4f00",
"y2 c #d55900",
"z2 c #e16400",
"03 c #e86c00",
"13 c #ea6e00",
"23 c #ec7100",
"33 c #ee7100",
"43 c #ed7000",
"53 c #ec6d00",
"63 c #eb6b00",
"73 c #e96800",
"83 c #e86600",
"93 c #e36000",
":3 c #db6200",
";3 c #d45b00",
"A3 c #c74c00",
"B3 c #d85900",
"C3 c #ef7800",
"D3 c #f28100",
"E3 c #f17f00",
"F3 c #f28200",
"G3 c #f58800",
"H3 c #f38e04",
"I3 c #f3aa3a",
"J3 c #f78e00",
"K3 c #f18200",
"L3 c #ea7500",
"M3 c #eb7400",
"N3 c #d05a00",
"O3 c #b13e00",
"P3 c #b74300",
"Q3 c #c64d00",
"R3 c #d45900",
"S3 c #e86d00",
"T3 c #ec7200",
"U3 c #ed7400",
"V3 c #ed7200",
"W3 c #ec6f00",
"X3 c #ec6c00",
"Y3 c #ea6900",
"Z3 c #e96700",
"a3 c #e66300",
"b3 c #e36100",
"c3 c #e36500",
"d3 c #e36c00",
"e3 c #df6700",
"f3 c #da6200",
"g3 c #d45d00",
"h3 c #ce5800",
"i3 c #c14d00",
"j3 c #b44100",
"k3 c #ef7c00",
"l3 c #f38300",
"m3 c #ee9523",
"n3 c #ed7800",
"o3 c #e06400",
"p3 c #d65a00",
"q3 c #da5f00",
"r3 c #ac3f00",
"s3 c #a23600",
"t3 c #b64400",
"u3 c #c34d00",
"v3 c #d15800",
"w3 c #de6300",
"x3 c #e96f00",
"y3 c #ee7400",
"z3 c #f07200",
"04 c #f06e00",
"14 c #ef6b00",
"24 c #ee6800",
"34 c #ed6400",
"44 c #eb6200",
"54 c #e95f00",
"64 c #e55d00",
"74 c #e56500",
"84 c #de6600",
"94 c #d96200",
":4 c #d35c00",
";4 c #c45100",
"A4 c #ae4000",
"B4 c #ac3e00",
"C4 c #e36b00",
"D4 c #eb7300",
"E4 c #ee7900",
"F4 c #df6806",
"G4 c #db5c00",
"H4 c #d15500",
"I4 c #9d3500",
"J4 c #b34300",
"K4 c #c04b00",
"L4 c #ce5500",
"M4 c #dd5e00",
"N4 c #ea6a00",
"O4 c #ec7601",
"P4 c #e97f15",
"Q4 c #e69342",
"R4 c #df9245",
"S4 c #e3aa75",
"T4 c #dc9a5c",
"U4 c #e3b182",
"V4 c #db9356",
"W4 c #dd9459",
"X4 c #db7c32",
"Y4 c #e17618",
"Z4 c #e26f04",
"a4 c #df6200",
"b4 c #da5d00",
"c4 c #d25b00",
"d4 c #ca5600",
"e4 c #c15000",
"f4 c #ab3f00",
"g4 c #a33a00",
"h4 c #e36a00",
"i4 c #e97000",
"j4 c #ee7800",
"k4 c #ef8002",
"l4 c #d3721e",
"m4 c #d15400",
"n4 c #c94e00",
"o4 c #a93d00",
"p4 c #983300",
"q4 c #af4100",
"r4 c #bf4600",
"s4 c #cb5502",
"t4 c #ce7732",
"u4 c #d4b18f",
"v4 c #c0b09d",
"w4 c #dddcda",
"x4 c #bec5ca",
"y4 c #dfe5e9",
"z4 c #c5d0d9",
"05 c #e1e7eb",
"15 c #c7d2da",
"25 c #c2cdd5",
"35 c #dee2e4",
"45 c #c6c6c3",
"55 c #dcd4ca",
"65 c #caa17a",
"75 c #d6965e",
"85 c #d05e05",
"95 c #ca5100",
":5 c #bf4e00",
";5 c #a13900",
"A5 c #b54700",
"B5 c #e46800",
"C5 c #ef7600",
"D5 c #eb8516",
"E5 c #db5900",
"F5 c #d25300",
"G5 c #c74b00",
"H5 c #a83a00",
"I5 c #943100",
"J5 c #ab3b00",
"K5 c #b2632f",
"L5 c #ab998a",
"M5 c #d4d8da",
"N5 c #b0bbc3",
"O5 c #d9dde0",
"P5 c #bdc2c6",
"Q5 c #dee1e2",
"R5 c #c4c9cb",
"S5 c #c8cdcf",
"T5 c #c8ccce",
"U5 c #e0e3e4",
"V5 c #c2c6c9",
"W5 c #c3cace",
"X5 c #dce1e5",
"Y5 c #b7c0c5",
"Z5 c #d1c9c1",
"a5 c #bb743c",
"b5 c #bb4900",
"c5 c #9e3700",
"d5 c #c44f00",
"e5 c #ef7400",
"f5 c #e49539",
"g5 c #d75b03",
"h5 c #d55300",
"i5 c #c94b00",
"j5 c #ad3c00",
"k5 c #952d00",
"l5 c #975e3c",
"m5 c #969ea2",
"n5 c #cdd2d5",
"o5 c #d6d8d9",
"p5 c #c1c6c9",
"q5 c #c7cccf",
"r5 c #e3e5e7",
"s5 c #e2e4e6",
"t5 c #c7cbcc",
"u5 c #bec1c2",
"v5 c #d9dbdc",
"w5 c #aeb5ba",
"x5 c #ced4d6",
"y5 c #a07150",
"z5 c #a33801",
"06 c #ce5300",
"16 c #e26500",
"26 c #ed7100",
"36 c #ee7700",
"46 c #cd6515",
"56 c #d95300",
"66 c #cb4c00",
"76 c #b73f00",
"86 c #96390a",
"96 c #808181",
":6 c #c6cacc",
";6 c #a1a5a7",
"A6 c #b3b7b9",
"B6 c #dadcdd",
"C6 c #c6cacd",
"D6 c #caced1",
"E6 c #e0e3e5",
"F6 c #c3c8ca",
"G6 c #e2e4e5",
"H6 c #c4c8c9",
"I6 c #dddedf",
"J6 c #b6babc",
"K6 c #d4d6d7",
"L6 c #a3a9ab",
"M6 c #bec3c5",
"N6 c #aa4f16",
"O6 c #d85800",
"P6 c #e46700",
"Q6 c #ef7200",
"R6 c #eb7f10",
"S6 c #da5400",
"T6 c #cf4d00",
"U6 c #bf4200",
"V6 c #a33e09",
"W6 c #b9b7b6",
"X6 c #90979b",
"Y6 c #cccfd0",
"Z6 c #aaaeb1",
"a6 c #d6d8da",
"b6 c #b8bdbf",
"c6 c #c2c7ca",
"d6 c #e1e4e5",
"e6 c #ccd1d4",
"f6 c #c6cbce",
"g6 c #e0e2e3",
"h6 c #e0e1e2",
"i6 c #bec2c4",
"j6 c #d9dadc",
"k6 c #adb1b3",
"l6 c #cdcfd0",
"m6 c #7e8385",
"n6 c #ca7d47",
"o6 c #de5b00",
"p6 c #e86800",
"q6 c #f17200",
"r6 c #e38f35",
"s6 c #7e776f",
"t6 c #c2c5c8",
"u6 c #9da2a4",
"v6 c #d1d4d5",
"w6 c #b1b5b8",
"x6 c #d9dcde",
"y6 c #bec3c6",
"z6 c #dfe2e3",
"07 c #c8cccf",
"17 c #e3e6e7",
"27 c #e4e6e8",
"37 c #cacfd2",
"47 c #c5cacc",
"57 c #c4c8ca",
"67 c #dcdedf",
"77 c #b5b9bb",
"87 c #d3d5d6",
"97 c #989ea1",
":7 c #b7b7b5",
";7 c #85898d",
"A7 c #caccce",
"B7 c #a8adb0",
"C7 c #d5d7d9",
"D7 c #b7bcbf",
"E7 c #dddfe1",
"F7 c #c3c8cc",
"G7 c #cbd0d4",
"H7 c #e4e7e9",
"I7 c #ccd2d6",
"J7 c #e3e6e8",
"K7 c #e2e5e6",
"L7 c #c9ced0",
"M7 c #dfe1e3",
"N7 c #bdc1c4",
"O7 c #d7d9da",
"P7 c #abafb1",
"Q7 c #c4c6c8",
"R7 c #788088",
"S7 c #babdbf",
"T7 c #979ca0",
"U7 c #cfd2d4",
"V7 c #aeb4b8",
"W7 c #d8dde1",
"X7 c #bbc7d2",
"Y7 c #dee5ea",
"Z7 c #c5d1da",
"a7 c #e3e8eb",
"b7 c #cdd3d7",
"c7 c #e5e8ea",
"d7 c #cad3d8",
"e7 c #e0e7eb",
"f7 c #c7d3dc",
"g7 c #e2e8ec",
"h7 c #c1cad1",
"i7 c #dcdee0",
"j7 c #b2b6b9",
"k7 c #d0d3d4",
"l7 c #858a8d",
"m7 c #7d8286",
"n7 c #c5c8cb",
"o7 c #a1adb5",
"p7 c #c9cdcf",
"q7 c #beae9d",
"r7 c #d7b38b",
"s7 c #dea058",
"t7 c #e59942",
"u7 c #ea9334",
"v7 c #eb8c2c",
"w7 c #ea882c",
"x7 c #e68832",
"y7 c #e18940",
"z7 c #e1a065",
"08 c #d7aa79",
"18 c #d8cbbc",
"28 c #bcbfbf",
"38 c #d5dbdf",
"48 c #a0a6aa",
"58 c #b8bcbe",
"68 c #b2b7ba",
"78 c #899094",
"88 c #b69277",
"98 c #cb6b23",
":8 c #e46b01",
";8 c #f67c00",
"A8 c #f37500",
"B8 c #f27000",
"C8 c #ee6400",
"D8 c #ea6f00",
"E8 c #e16b00",
"F8 c #d3721f",
"G8 c #be8e64",
"H8 c #c1c3c3",
"I8 c #7d858a",
"J8 c #9b633f",
"K8 c #be4400",
"L8 c #d05400",
"M8 c #e26800",
"N8 c #ef7900",
"O8 c #f37e00",
"P8 c #f37900",
"Q8 c #ef6f00",
"R8 c #ec6a00",
"S8 c #ec7500",
"T8 c #e87400",
"U8 c #df6b00",
"V8 c #d56000",
"W8 c #cd5600",
"X8 c #a55c25",
"Y8 c #9b3a03",
"Z8 c #b84700",
"a8 c #cb5500",
"b8 c #df6600",
"c8 c #ed7700",
"d8 c #f38200",
"e8 c #f17400",
"f8 c #ed6b00",
"g8 c #ec7700",
"h8 c #e77400",
"i8 c #de6a00",
"j8 c #d36200",
"k8 c #c65800",
"l8 c #a64000",
"m8 c #98420b",
"n8 c #c85300",
"o8 c #dc6300",
"p8 c #ed7600",
"q8 c #f48200",
"r8 c #f47f00",
"s8 c #f37a00",
"t8 c #f27400",
"u8 c #ed6c00",
"v8 c #ed7900",
"w8 c #dd6a00",
"x8 c #d16200",
"y8 c #c05300",
"z8 c #9d3e05",
"09 c #a83d00",
"19 c #c45000",
"29 c #d96100",
"39 c #ec7400",
"49 c #f58300",
"59 c #f48000",
"69 c #f47b00",
"79 c #ed6d00",
"89 c #ed7a00",
"99 c #e67300",
":9 c #db6a00",
";9 c #cf6100",
"A9 c #b74b00",
"B9 c #a03c01",
"C9 c #bf4d00",
"D9 c #d55d00",
"E9 c #ea7200",
"F9 c #f38100",
"G9 c #ed6f00",
"H9 c #ed7b00",
"I9 c #e57300",
"J9 c #da6900",
"K9 c #cd6000",
"L9 c #ac4400",
"M9 c #9c4008",
"N9 c #b94800",
"O9 c #d15a00",
"P9 c #e76f00",
"Q9 c #f28000",
"R9 c #f58100",
"S9 c #f47c00",
"T9 c #f37600",
"U9 c #f06f00",
"V9 c #ee7000",
"W9 c #ed7c00",
"X9 c #e47100",
"Y9 c #d86800",
"Z9 c #c85a00",
"a9 c #a34204",
"b9 c #b04200",
"c9 c #ce5700",
"d9 c #e46b00",
"e9 c #f27f00",
"f9 c #f68300",
"g9 c #f77f00",
"h9 c #f57900",
"i9 c #f47200",
"j9 c #f16b00",
"k9 c #ef7100",
"l9 c #ec7b00",
"m9 c #e37100",
"n9 c #d66800",
"o9 c #bf5200",
"p9 c #9e460e",
"q9 c #a83f00",
"r9 c #ca5000",
"s9 c #e36300",
"t9 c #f17d01",
"u9 c #f18c14",
"v9 c #ef8f22",
"w9 c #ee8f2a",
"x9 c #ed8b2b",
"y9 c #eb8023",
"z9 c #ec8116",
"0: c #ec7f04",
"1: c #e36d00",
"2: c #d56100",
"3: c #b54a00",
"4: c #a03e02",
"5: c #b96a33",
"6: c #d1b69d",
"7: c #c8baaa",
"8: c #e2e1df",
"9: c #d0d6d8",
":: c #d2d2ce",
";: c #e7e1d9",
"A: c #cdaf8d",
"B: c #d49f6f",
"C: c #a84403",
"D: c #8f715a",
"E: c #c8ced3",
"F: c #afbcc6",
"G: c #dce1e6",
"H: c #c8d0d6",
"I: c #d3d9dd",
"J: c #e8ebed",
"K: c #cfd5da",
"L: c #e7eaec",
"M: c #ccd4db",
"N: c #dee4e9",
"O: c #aab6bf",
"P: c #a89584",
"Q: c #90979c",
"R: c #d4d7d9",
"S: c #bdc3c8",
"T: c #d3d9dc",
"U: c #e4e7e8",
"V: c #c0c6c9",
"W: c #cccfd1",
"X: c #bfc2c4",
"Y: c #a8afb3",
"Z: c #dbdfe1",
"a: c #c8ced2",
"b: c #e6e8ea",
"c: c #d3d8dc",
"d: c #d0d5d8",
"e: c #cbd0d3",
"f: c #dcdfe0",
"g: c #94999d",
"h: c #878c91",
"i: c #ced1d4",
"j: c #b9bfc3",
"k: c #e1e4e6",
"l: c #cfd4d8",
"m: c #d4d8dc",
"n: c #e6e9eb",
"o: c #d2d7da",
"p: c #e2e5e7",
"q: c #b6bcbf",
"r: c #bbbec1",
"s: c #99a0a4",
"t: c #d8dcde",
"u: c #c6ccd0",
"v: c #e6e9ea",
"w: c #e8ebec",
"x: c #d1d6da",
"y: c #e8eaeb",
"z: c #c8cdd0",
"0; c #d3d6d8",
"1; c #c3c6c9",
"2; c #b1b7bc",
"3; c #e0e3e6",
"4; c #cfd5d8",
"5; c #e8eaec",
"6; c #d4d9dc",
"7; c #e7eaeb",
"8; c #d2d6d9",
"9; c #e1e3e5",
":; c #9da3a7",
";; c #8d9498",
"A; c #d3d7da",
"B; c #c0cbd3",
"C; c #e4eaf0",
"D; c #d2dde8",
"E; c #e7eef2",
"F; c #d1dce5",
"G; c #e6eaef",
"H; c #c0c7cb",
"I; c #c1c5c8",
"J; c #b2b9be",
"K; c #a6a9aa",
"L; c #e2d9cf",
"M; c #dabd97",
"N; c #efdbc4",
"O; c #dfb78f",
"P; c #ecdcc8",
"Q; c #d6c5ac",
"R; c #dadad9",
"S; c #8a959d",
"T; c #b75a19",
"U; c #e97100",
"V; c #f88300",
"W; c #f87c00",
"X; c #f56e00",
"Y; c #f27500",
"Z; c #ea7d00",
"a; c #c66814",
"b; c #b14701",
"c; c #e36900",
"d; c #f68600",
"e; c #f68000",
"f; c #f07a00",
"g; c #e67800",
"h; c #bb5100",
"i; c #a64c0b",
"j; c #d96000",
"k; c #f58400",
"l; c #f68100",
"m; c #f07d00",
"n; c #e07200",
"o; c #ad4e0a",
"p; c #cc5600",
"q; c #f48100",
"r; c #f78200",
"s; c #f37400",
"t; c #f07e00",
"u; c #d76900",
"v; c #bd5103",
"w; c #f27d00",
"x; c #f98500",
"y; c #f47700",
"z; c #f07f00",
"0A c #ca5f02",
"1A c #b25005",
"2A c #ea7300",
"3A c #f68500",
"4A c #f37700",
"5A c #eb6f00",
"6A c #be5907",
"7A c #c65801",
"8A c #c75901",
"                                                                                                ",
"                                              8A7A                                              ",
"                                          6A5A4A3A2A1A                                          ",
"                                          0Az;y;x;w;v;                                          ",
"                                          u;t;s;r;q;p;                                          ",
"                                        o;n;m;s;l;k;j;i;                                        ",
"                                        h;g;f;s;e;d;c;b;                                        ",
"                                        a;Z;Y;X;W;V;U;T;                                        ",
"                                      S;R;Q;P;O;N;M;L;K;J;                                      ",
"                                      I;H;G;F;E;D;C;B;A;;;                                      ",
"                                      :;9;8;7;6;5;4;3;2;1;                                      ",
"                                      0;z:y:x:w:6;v:u:t:s:                                      ",
"                                    r:q:p:o:n:m:w:l:k:j:i:h:                                    ",
"                                    g:f:e:7;d:5;c:b:a:Z:Y:X:                                    ",
"                                    W:V:U:A;n:T:5;d:p:S:R:Q:                                    ",
"                                  P:O:N:M:L:K:J:I:n:H:G:F:E:D:                                  ",
"                                  C:B:A:;:::v:I:J:9:8:7:6:5:4:                                  ",
"                                  3:2:1:0:z9y9x9w9v9u9t9s9r9q9                                  ",
"                                p9o9n9m9l9k9j9i9h9g9f9e9d9c9b9                                  ",
"                                a9Z9Y9X9W9V9U9T9S9R9k;Q9P9O9N9M9                                ",
"                                L9K9J9I9H9G9U9Y;S9R9k;F9E9D9C9B9                                ",
"                                A9;9:9998979U9Y;695949F939291909                                ",
"                              z8y8x8w899v8u8U9t8s8r8q8F9p8o8n8b9m8                              ",
"                              l8k8j8i8h8g8f8U9e8s8r8q;d8c8b8a8Z8Y8                              ",
"                              X8W8V8U8T8S8R8Q8e8P8O8q;d8N8M8L8K8J8                              ",
"                            I8H8G8F8E8D879C8j9B8A8h9;8;84A:898887868                            ",
"                            584838281808z7y7x7w7v7u7t7s7r7q7p7o7n7m7                            ",
"                            l7k7j7i7h7g7f7e7d7c7b7a7Z7Y7X7W7V7U7T7S7                            ",
"                          R7Q7P7O7N7M7L7K7z:J7I7H7G7K7F7E7D7C7B7A7;7                            ",
"                          :79787776757K747k:3727e:1707z6y6x6w6v6u6t6s6                          ",
"                r6q6p6o6n6m6l6k6j6i6h6p7g6f617e6J737d6c6E7b6a6Z6Y6X6W6V6U6T6S6                  ",
"                R6Q6P6O6N6M6L6K6J6I6H6G6F6E6z:17D6K7C6M7y6B6A687;6:6968676665646                ",
"                36261606z5y5x5w5v5u5h6t5M747s5L7r5q59;p5f:58o5k6n5m5l5k5j5i5h5g5                ",
"              f5e55A16d5c5b5a5Z5Y5X5W59;V5U5T5K7S5d6R5Q5P5O5N5M5L5K5J5I5H5G5F5E5                ",
"              D5C5D8B5A5;5:59585756555453525e71505z4y4x4w4v4u4t4s4r4q4p4o4n4m4E5l4              ",
"              k4j4i4h4g4f4e4d4c4b4a4Z4Y4X4W4V4U4T4S4R4Q4P4O4N4M4L4K4J4I4g4H4H4G4F4              ",
"              Q9E4D4C4B4A4;4p;:49484C47464544434241404z3e5y3x3w3v3u3t3s3r3q3p3o3n3              ",
"            m3l3k3n3c8c9j3i3h3g3f3e3d3c3b3a3Z3Y3X3W3V3y3U3T3S3o3R3Q3P3O3N3M3L3K3J3I3            ",
"            H3G3F3E3D3C3B3A395;3:3e3d9s993a3837363534333231303z2y2x2w2b4E3v2v2u2t2s2            ",
"            r2q2p2v2G3o2P863n2m2O6l2k2j2i2h2g2Z3f2X353e253d2c2b2a2Z2Y2X2W2V2U2T2S2R2            ",
"          Q2P2t2O2N2N2r2M2L2K2J2I2H2G2F2F2E2D2H2C2B2R8u8A2z3;2l;:292V;M282726252R24232          ",
"          221202z1P2y1x1w1v1u1t1s1r1q1p1o1i9n1m1B8l1k1j1i1h1g1h1f1e1l;d1c1b1c1a1Z1Y1X1          ",
"          W1V1U1T1S1T1U1U1R1V;Q1P1O1N1g1M1L1K1K1K1J1L1M1I1h1H1P1G1F1E1D1C1C1B1A1;1:191          ",
"        8171615141413151512111t1t19201z00101y0z0z0z0z0z0z01111x011w0Y1v0v0u0:1t0s0r0q0          ",
"        p0o0n0m0l0l0n0k0o0o0j0i0h0g0f0f0e0e0e0e0e0f0f0f0g0h0h0i0d0o0c0c0c0b0b0b0a0Z0Y0X0        ",
"        W0V0U0U0U0U0U0T0T0T0T0S0S0S0S0R0R0R0R0Q0Q0Q0Q0Q0Q0Q0Q0Q0Q0Q0Q0Q0Q0Q0Q0Q0Q0Q0P0O0        ",
"          N0M0L0K0J0I0H0G0H0F0E0D0D0C0B0A0A0A0A0A0A0A0;0;0:090808090706090504030201000          ",
"                                                                                                "};
