/* XPM */
static char *image[] = {
"48 48 241 2",
"   c None",
"00 c #7e807d",
"10 c #7f817e",
"20 c #7e817d",
"30 c #7f807e",
"40 c #a3a4a3",
"50 c #a4a5a4",
"60 c #80827e",
"70 c #cecece",
"80 c #c8c8c8",
"90 c #afafaf",
":0 c #80827f",
";0 c #323535",
"A0 c #cdcdcd",
"B0 c #818380",
"C0 c #cbcbcb",
"D0 c #b0b0b0",
"E0 c #828481",
"F0 c #cacaca",
"G0 c #b1b1b1",
"H0 c #848582",
"I0 c #2d2d2d",
"J0 c #2d2e2e",
"K0 c #c9c9c9",
"L0 c #858784",
"M0 c #232323",
"N0 c #242424",
"O0 c #242525",
"P0 c #c7c7c7",
"Q0 c #b2b2b2",
"R0 c #868885",
"S0 c #2e2e2e",
"T0 c #2e2f2f",
"U0 c #2f302f",
"V0 c #c6c6c6",
"W0 c #888986",
"X0 c #242524",
"Y0 c #252525",
"Z0 c #252626",
"a0 c #b3b3b3",
"b0 c #898b88",
"c0 c #2f2f2f",
"d0 c #303130",
"e0 c #b4b4b4",
"f0 c #8a8c89",
"g0 c #252625",
"h0 c #262727",
"i0 c #8c8d8a",
"j0 c #2f3030",
"k0 c #303131",
"l0 c #313231",
"m0 c #b5b5b5",
"n0 c #8d8f8c",
"o0 c #262726",
"p0 c #262827",
"q0 c #8e908d",
"r0 c #303231",
"s0 c #313232",
"t0 c #b6b6b6",
"u0 c #90918e",
"v0 c #272827",
"w0 c #272928",
"x0 c #b7b7b7",
"y0 c #91928f",
"z0 c #313332",
"01 c #929491",
"11 c #282928",
"21 c #282a29",
"31 c #b8b8b8",
"41 c #949592",
"51 c #323433",
"61 c #959693",
"71 c #282b29",
"81 c #292b2a",
"91 c #b9b9b9",
":1 c #969895",
";1 c #333534",
"A1 c #333635",
"B1 c #989996",
"C1 c #292c2a",
"D1 c #2a2c2b",
"E1 c #2a2d2c",
"F1 c #3d4541",
"G1 c #3f4843",
"H1 c #bababa",
"I1 c #999a97",
"J1 c #343635",
"K1 c #343735",
"L1 c #4e5551",
"M1 c #e2e4e3",
"N1 c #e5e6e5",
"O1 c #e3e4e3",
"P1 c #4b534f",
"Q1 c #bbbbbb",
"R1 c #9a9c99",
"S1 c #2a2d2b",
"T1 c #2b2e2d",
"U1 c #3e4642",
"V1 c #404744",
"W1 c #414844",
"X1 c #404944",
"Y1 c #9c9d9a",
"Z1 c #343736",
"a1 c #353836",
"b1 c #49524d",
"c1 c #46504b",
"d1 c #bcbcbc",
"e1 c #9d9e9b",
"f1 c #2b2e2c",
"g1 c #2b2f2d",
"h1 c #3d4641",
"i1 c #48504b",
"j1 c #b1b4b2",
"k1 c #424b45",
"l1 c #3d4842",
"m1 c #9e9f9c",
"n1 c #353937",
"o1 c #363937",
"p1 c #6e7571",
"q1 c #dddfde",
"r1 c #a0a5a2",
"s1 c #4a544f",
"t1 c #47514c",
"u1 c #bdbdbd",
"v1 c #a0a19e",
"w1 c #2c2f2d",
"x1 c #2c302e",
"y1 c #58605c",
"z1 c #ebeceb",
"02 c #6b746f",
"12 c #424c47",
"22 c #bebebe",
"32 c #363a38",
"42 c #373b38",
"52 c #383c3a",
"62 c #3a3e3c",
"72 c #3c413e",
"82 c #3f4441",
"92 c #3f4743",
":2 c #404843",
";2 c #414945",
"A2 c #434b47",
"B2 c #444e49",
"C2 c #4d5650",
"D2 c #c5c8c7",
"E2 c #d1d4d3",
"F2 c #5b645e",
"G2 c #2d302e",
"H2 c #2d312f",
"I2 c #2e3330",
"J2 c #2f3432",
"K2 c #323734",
"L2 c #333a36",
"M2 c #343b38",
"N2 c #373e3a",
"O2 c #38413c",
"P2 c #3b453f",
"Q2 c #3c4540",
"R2 c #818884",
"S2 c #dbdddc",
"T2 c #464f4a",
"U2 c #bfbfbf",
"V2 c #373b39",
"W2 c #383c39",
"X2 c #383d3a",
"Y2 c #393d3b",
"Z2 c #393e3b",
"a2 c #3a3f3c",
"b2 c #3a3f3d",
"c2 c #3b3f3d",
"d2 c #3b403e",
"e2 c #3c413f",
"f2 c #3d423f",
"g2 c #3d433f",
"h2 c #3e4340",
"i2 c #3e4440",
"j2 c #3f4541",
"k2 c #3f4642",
"l2 c #404743",
"m2 c #404844",
"n2 c #414944",
"o2 c #414a45",
"p2 c #424a46",
"q2 c #424b46",
"r2 c #434c47",
"s2 c #434d48",
"t2 c #444d48",
"u2 c #454e49",
"v2 c #454f4a",
"w2 c #46504a",
"x2 c #46514b",
"y2 c #49534e",
"z2 c #565f5a",
"03 c #49544e",
"13 c #48534d",
"23 c #2d322f",
"33 c #2e3230",
"43 c #2f3331",
"53 c #2f3431",
"63 c #303532",
"73 c #303533",
"83 c #313633",
"93 c #313734",
":3 c #323835",
";3 c #323935",
"A3 c #333936",
"B3 c #343a37",
"C3 c #343b37",
"D3 c #353c38",
"E3 c #353c39",
"F3 c #363d39",
"G3 c #363e3a",
"H3 c #373f3b",
"I3 c #38403b",
"J3 c #38403c",
"K3 c #39413c",
"L3 c #39423d",
"M3 c #3a433e",
"N3 c #3b443f",
"O3 c #3b4540",
"P3 c #3c4640",
"Q3 c #3d4741",
"R3 c #3d4742",
"S3 c #3e4842",
"T3 c #3e4943",
"U3 c #3f4a44",
"V3 c #2c2f2f",
"W3 c #333636",
"X3 c #c1c1c1",
"Y3 c #c4c4c4",
"Z3 c #c5c5c5",
"a3 c #c2c2c2",
"b3 c #dbdbdb",
"c3 c #d5d5d5",
"d3 c #a3a4a1",
"e3 c #c0c0c0",
"f3 c #c3c3c3",
"g3 c #c1c1c0",
"h3 c #a2a4a1",
"i3 c #a1a29f",
"j3 c #a2a3a0",
"                                                                                                ",
"                                                                                                ",
"                                                                                                ",
"                                                                                                ",
"        j3i3i3i3i3i3i3i3i3i3i3i3i3i3i3i3i3i3i3i3i3i3i3i3i3i3i3i3i3i3i3i3i3i3i3i3i3i3i3h3        ",
"      h3g3f3f3f3f3f3f3f3f3f3f3f3f3f3f3f3f3f3f3f3f3f3f3f3f3f3f3f3f3f3f3f3f3f3f3f3f3f3f3e3d3      ",
"      i3c3b3b3b3b3b3b3b3b3b3b3b3b3b3b3b3b3b3b3b3b3b3b3b3b3b3b3b3b3b3b3b3b3b3b3b3b3b3b3c3i3      ",
"      i3a3a3a3a3a3a3a3a3a3a3a3a3a3a3a3a3a3a3a3a3a3a3a3a3a3a3a3a3a3a3a3a3a3a3a3a3a3a3a3a3i3      ",
"      i3a3Z3Z3Z3Z3Z3Z3Z3Z3Z3Z3Z3Z3Z3Z3Z3Z3Z3Z3Z3Z3Z3Z3Z3Z3Z3Z3Z3Z3Z3Z3Z3Z3Z3Z3Z3Z3Z3Y3a3i3      ",
"      i3X3Z3W3V3V3V3V3V3V3V3V3V3V3V3V3V3V3V3V3V3V3V3V3V3V3V3V3V3V3V3V3V3V3V3V3V3V3W3Z3X3i3      ",
"      i3e3Y3V3U3U3U3T3S3R3Q3P3O3N3M3M3L3K3J3I3H3G3F3E3D3C3B3A3;3:39383736353433323V3Y3e3i3      ",
"      i3e3Y3V31303z2y2x2w2v2u2t2s2r2q2p2o2n2m2l2k2k2j2i2h2g2f2e2d2c2b2a2Z2Y2X2W2V2V3Y3e3i3      ",
"      i3U2Y3V3U3T2S2R2t2R3Q2P2N3M3L3L3O2J3H3N2G3F3D3M2B3L2A3:3K2938363J243I233H2G2V3Y3U2i3      ",
"      i3U2Z3V31313F2E2D2C2B2t2r2A2q2o2;2m2:292k2j282i2g2f2e272d2c2a262Z2X252V24232V3Z3U2i3      ",
"      i322Y3V3T3S31202z1y1Q2M3M3L3K3J3I3H3G3F3E3D3C3B3A3;3:39383736353433323H2x1w1V3Y322i3      ",
"      v1u1f3V3t1s1r1q1p1u2s2r2q2p2o2n2m2l2k2k2j2i2h2g2f2e2d2c2b2a2Z2Y2X2W2V232o1n1V3f3u1v1      ",
"      m1u1Y3V3l1k1j1i1h1N3M3L3L3O2J3H3N2G3F3D3M2B3L2A3:3K2938363J243I233H2G2x1g1f1V3Y3u1m1      ",
"      e1d1f3V3c1v2b1B2t2r2A2q2o2;2m2:292k2j282i2g2f2e272d2c2a262Z2X252V24232o1a1Z1V3f3d1e1      ",
"      Y1d1Y3V3Q3P3O3N3M3N3X1W1V1l2U1H3F3E3D3C3B3A3;3:39383736353433323H2x1w1T1f1S1V3Y3d1Y1      ",
"      R1Q1f3V3v2u2t2s2r2P1O1N1N1N1M1L1k2j2i2h2g2f2e2d2c2b2a2Z2Y2X2W2V232o1n1a1K1J1V3f3Q1R1      ",
"      I1H1f3V3Q2P2N3M3L3M3G1V192k2F1N2D3M2B3L2A3:3K2938363J243I233H2G2x1g1f1E1D1C1V3f3H1I1      ",
"      B1H1f3V3B2t2r2A2q2o2;2m2:292k2j282i2g2f2e272d2c2a262Z2X252V24232o1a1Z1K1A1;1V3f3H1B1      ",
"      :191f3V3N3M3M3L3K3J3I3H3G3F3E3D3C3B3A3;3:39383736353433323H2x1w1T1f1S1D18171V3f391:1      ",
"      6191f3V3s2r2q2p2o2n2m2l2k2k2j2i2h2g2f2e2d2c2b2a2Z2Y2X2W2V232o1n1a1K1J1;1;151V3f39161      ",
"      4131f3V3M3L3L3O2J3H3N2G3F3D3M2B3L2A3:3K2938363J243I233H2G2x1g1f1E1D1C1812111V3f33141      ",
"      0131f3V3A2q2o2;2m2:292k2j282i2g2f2e272d2c2a262Z2X252V24232o1a1Z1K1A1;15151z0V3f33101      ",
"      y0x0f3V3L3K3J3I3H3G3F3E3D3C3B3A3;3:39383736353433323H2x1w1T1f1S1D1817121w0v0V3f3x0y0      ",
"      u0t0a3V3p2o2n2m2l2k2k2j2i2h2g2f2e2d2c2b2a2Z2Y2X2W2V232o1n1a1K1J1;1;151z0s0r0V3a3t0u0      ",
"      q0t0f3V3O2J3H3N2G3F3D3M2B3L2A3:3K2938363J243I233H2G2x1g1f1E1D1C1812111w0p0o0V3f3t0q0      ",
"      n0m0a3V3;2m2:292k2j282i2g2f2e272d2c2a262Z2X252V24232o1a1Z1K1A1;15151z0l0k0j0V3a3m0n0      ",
"      i0m0f3V3I3H3G3F3E3D3C3B3A3;3:39383736353433323H2x1w1T1f1S1D1817121w0v0h0o0g0V3f3m0i0      ",
"      f0e0Y3V3m2l2k2k2j2i2h2g2f2e2d2c2b2a2Z2Y2X2W2V232o1n1a1K1J1;1;151z0s0r0d0j0c0V3Y3e0f0      ",
"      b0a0Z3V3N2G3F3D3M2B3L2A3:3K2938363J243I233H2G2x1g1f1E1D1C1812111w0p0o0Z0Y0X0V3Z3a0b0      ",
"      W0a0V0V392k2j282i2g2f2e272d2c2a262Z2X252V24232o1a1Z1K1A1;15151z0l0k0j0U0T0S0V3V0a0W0      ",
"      R0Q0P0V3F3E3D3C3B3A3;3:39383736353433323H2x1w1T1f1S1D1817121w0v0h0o0g0O0N0M0V3P0Q0R0      ",
"      L0Q0K0V3k2j2i2h2g2f2e2d2c2b2a2Z2Y2X2W2V232o1n1a1K1J1;1;151z0s0r0d0j0c0S0J0I0V3K0Q0L0      ",
"      H0G0F0V3D3M2B3L2A3:3K2938363J243I233H2G2x1g1f1E1D1C1812111w0p0o0Z0Y0X0N0M0M0V3F0G0H0      ",
"      E0D0C0V382i2g2f2e272d2c2a262Z2X252V24232o1a1Z1K1A1;15151z0l0k0j0U0T0S0I0I0I0V3C0D0E0      ",
"      B0D0A0;0V3V3V3V3V3V3V3V3V3V3V3V3V3V3V3V3V3V3V3V3V3V3V3V3V3V3V3V3V3V3V3V3V3V3;0A0D0B0      ",
"      :09080707070707070707070707070707070707070707070707070707070707070707070707070P090:0      ",
"      605090909090909090909090909090909090909090909090909090909090909090909090909090904030      ",
"        20101010101010101010101010101010101010101010101010101010101010101010101010101000        ",
"                                                                                                ",
"                                                                                                ",
"                                                                                                ",
"                                                                                                ",
"                                                                                                ",
"                                                                                                "};
