/* XPM */
static char *image[] = {
"48 48 248 2",
"   c None",
"00 c #4b5a77",
"10 c #4c5c78",
"20 c #6f80aa",
"30 c #929eb8",
"40 c #f2ffff",
"50 c #bbbbd2",
"60 c #617fad",
"70 c #5f74a3",
"80 c #6981aa",
"90 c #9fb3d8",
":0 c #fefdf4",
";0 c #f0f2ef",
"A0 c #bbcbd2",
"B0 c #697da0",
"C0 c #e3ebf4",
"D0 c #c0c9d1",
"E0 c #6a82ab",
"F0 c #8493b2",
"G0 c #607eab",
"H0 c #9ba2c3",
"I0 c #5c759d",
"J0 c #e2e0e4",
"K0 c #a3aabf",
"L0 c #7282ac",
"M0 c #736a70",
"N0 c #1e222e",
"O0 c #5d79ad",
"P0 c #c0ccda",
"Q0 c #6f87b0",
"R0 c #26272e",
"S0 c #a3aec8",
"T0 c #f8fdff",
"U0 c #c8cddc",
"V0 c #bac2d7",
"W0 c #bbcade",
"X0 c #5479ab",
"Y0 c #747886",
"Z0 c #2b3243",
"a0 c #c5c9d9",
"b0 c #ebf4fc",
"c0 c #e0e5e8",
"d0 c #8a99b8",
"e0 c #d8dde0",
"f0 c #6785b3",
"g0 c #d5d6e0",
"h0 c #d0d8e1",
"i0 c #dae2eb",
"j0 c #96a1bb",
"k0 c #667baa",
"l0 c #738cb5",
"m0 c #79888e",
"n0 c #424653",
"o0 c #6c84ad",
"p0 c #6381ae",
"q0 c #8793b9",
"r0 c #6684b2",
"s0 c #6979a3",
"t0 c #8a92a6",
"u0 c #22334c",
"v0 c #7285a9",
"w0 c #6c81b0",
"x0 c #7c8fb3",
"y0 c #7487ab",
"z0 c #b7bfd4",
"01 c #eaf3fb",
"11 c #6b83ac",
"21 c #fafcf8",
"31 c #7a8db1",
"41 c #abbfd8",
"51 c #3a465c",
"61 c #778aae",
"71 c #e4eaec",
"81 c #cecadc",
"91 c #c8d4e2",
":1 c #d5e1ef",
";1 c #6b88b7",
"A1 c #6d85ae",
"B1 c #f4f2f6",
"C1 c #e5f2f3",
"D1 c #e8edf0",
"E1 c #6e86af",
"F1 c #cdd9e7",
"G1 c #7a93bc",
"H1 c #cbd3dc",
"I1 c #f6f8f4",
"J1 c #7189b3",
"K1 c #4f5a71",
"L1 c #d4d9e9",
"M1 c #cfdfe6",
"N1 c #bcc4d9",
"O1 c #7b8eb2",
"P1 c #bfbfd6",
"Q1 c #7088b1",
"R1 c #7787b2",
"S1 c #7e91b5",
"T1 c #748db6",
"U1 c #7790b9",
"V1 c #7d90b4",
"W1 c #768eb7",
"X1 c #8093b8",
"Y1 c #7f92b7",
"Z1 c #b6c1dc",
"a1 c #667593",
"b1 c #a0afcf",
"c1 c #35393b",
"d1 c #8396bb",
"e1 c #8194b9",
"f1 c #5f565c",
"g1 c #7083a7",
"h1 c #546060",
"i1 c #89a1cb",
"j1 c #9aaac9",
"k1 c #5b696f",
"l1 c #222632",
"m1 c #8497bc",
"n1 c #707482",
"o1 c #2b2e3b",
"p1 c #94a7cc",
"q1 c #adb9d3",
"r1 c #ccd3e9",
"s1 c #c6cee3",
"t1 c #ced6eb",
"u1 c #bed6e8",
"v1 c #c2cadf",
"w1 c #9fa3b2",
"x1 c #324045",
"y1 c #96a5c5",
"z1 c #b1c1d4",
"02 c #a0a8b0",
"12 c #78776f",
"22 c #898b88",
"32 c #8b8a82",
"42 c #94938b",
"52 c #2d2e2c",
"62 c #1b2333",
"72 c #232a3b",
"82 c #202737",
"92 c #575559",
":2 c #434b5d",
";2 c #90a4c9",
"A2 c #8699be",
"B2 c #dde6ee",
"C2 c #b7b7ae",
"D2 c #676f76",
"E2 c #4d6183",
"F2 c #526688",
"G2 c #b9bdcd",
"H2 c #869fc9",
"I2 c #879bbf",
"J2 c #899dc1",
"K2 c #889cc0",
"L2 c #8d9cbc",
"M2 c #92a1c0",
"N2 c #909fbe",
"O2 c #d3dbf1",
"P2 c #5b636a",
"Q2 c #37454a",
"R2 c #d1d5e5",
"S2 c #adbdc4",
"T2 c #aeb2c1",
"U2 c #a9b4c2",
"V2 c #aab5c3",
"W2 c #c0c4d3",
"X2 c #7c7d86",
"Y2 c #e9e8df",
"Z2 c #b3b7c6",
"a2 c #777e92",
"b2 c #414c63",
"c2 c #142135",
"d2 c #dfded5",
"e2 c #dadcd9",
"f2 c #d8dad7",
"g2 c #4f5e7b",
"h2 c #52617e",
"i2 c #b5b6c0",
"j2 c #9098ac",
"k2 c #293954",
"l2 c #686972",
"m2 c #b9bac4",
"n2 c #27304b",
"o2 c #fefffc",
"p2 c #636a72",
"q2 c #b3bbd0",
"r2 c #556078",
"s2 c #565a5c",
"t2 c #516065",
"u2 c #585f66",
"v2 c #575e65",
"w2 c #5b5c65",
"x2 c #5c5a5d",
"y2 c #8d95a9",
"z2 c #536380",
"03 c #576683",
"13 c #596886",
"23 c #586784",
"33 c #506990",
"43 c #526b92",
"53 c #b1bdcb",
"63 c #98a7ba",
"73 c #566582",
"83 c #5d6c89",
"93 c #546d95",
":3 c #566f97",
";3 c #5c7092",
"A3 c #596d8f",
"B3 c #b5bec6",
"C3 c #3f424f",
"D3 c #abb3c8",
"E3 c #788f9f",
"F3 c #9fa6bb",
"G3 c #858997",
"H3 c #7f8b98",
"I3 c #898d9c",
"J3 c #838f9c",
"K3 c #9cabbe",
"L3 c #808fa1",
"M3 c #bbc7e2",
"N3 c #4b648b",
"O3 c #607497",
"P3 c #627699",
"Q3 c #64789b",
"R3 c #63779a",
"S3 c #6b7a98",
"T3 c #5d7ba8",
"U3 c #5e7295",
"V3 c #bcbdc7",
"W3 c #c0cbe6",
"X3 c #506f9c",
"Y3 c #6078a1",
"Z3 c #6780a8",
"a3 c #5c7aa7",
"b3 c #b5c1cf",
"c3 c #494952",
"d3 c #8199c3",
"e3 c #5f7daa",
"f3 c #637ba4",
"g3 c #5a78a5",
"h3 c #c9cad4",
"i3 c #73747d",
"j3 c #a0abc6",
"k3 c #9ca4b8",
"l3 c #98a3bd",
"m3 c #b3bed9",
"n3 c #9aa5c0",
"o3 c #b2bdd8",
"p3 c #a7b2cd",
"q3 c #737175",
"                                                                                                ",
"                                                                                                ",
"                                                                                                ",
"                                                                                                ",
"                                                                                                ",
"                                                                                                ",
"                                                                                                ",
"          q3p3o3n3m3l3m3k3m3l3m3k3m3j3i3                                                        ",
"          h3g3f3f3e3e3e3e3f3f3e3f3f3g3d3c3                                                      ",
"          b3a3f3Z3f3f3f3f3f3f3Y3Y3Y3f3X3W3                                                      ",
"          V3U3T3Y3Y3g3S3g3R3Q3P3P3R3O3R3N3M3L3K3J3k3I3K3L3K3H3K3G3F3G3F3E3F3G3k3G3D3C3          ",
"          B3O3P3P3P3P3O3O3O3O3O3O3O3U3U3U3A3;3:3;3:3:3:3:3:3:3939393939393939393837363          ",
"          53:3;3;3;393939393439393334333434343233323130303030373737373737373z2031313y2          ",
"          V343;38373x2w2w2v2u2v2v2u2u2u2w2w2w2w2w2w2w2w2t2v2v2v2v2v2v2v2v2v2s2r2z273y2          ",
"          q2239373p2o2o2o2o2o2o2o2o2o2o2o2o2o2o2o2o2o2o2o2o2o2o2o2o2o2o2o2o2o2n20373y2          ",
"          m27313z2l2o2o2o2o2o2o2o2o2o2o2o2o2o2o2o2o2o2o2o2o2o2o2o2o2o2o2o2o2o2k22303j2          ",
"          i2h223g2p2o2o2o2o2o2o2o2o2f2f2f2f2f2f2f2f2f2f2f2f2f2f2f2f2f2f2f2e2d2c2b2b2a2          ",
"          Z2h273g2p2o2o2o2o2o2o2Y2X2W2V2V2V2V2V2V2V2V2V2V2V2V2U2U2U2U2U2U2U2T2S2i2i2T2R2Q2      ",
"          Z2h203g2p2o2o2o2o2o2o2P2O2N2M2L2L2L2L2L2K2K2L2L2K2K2J2J2J2J2I2I2I2I2J2K2I2I2H2h2      ",
"          G2F213E2D2o2o2o2o2o2C2B2I2N2A2I2I2I2I2I2I2I2I2I2I2I2I2I2I2I2I2I2I2I2I2I2I2I2;2:2      ",
"          9282726252423232221202z1y1A2K2I2I2I2I2I2I2I2I2I2I2I2I2I2I2I2I2I2I2I2I2I2I2I2;2x1      ",
"      w1v1u1t1t1t1t1v1s1s1s1r1q1M2J2I2I2I2I2I2I2I2I2I2I2I2I2I2I2I2I2I2I2I2I2I2I2I2I2I2p1o1      ",
"      n1y1I2A2A2A2A2A2A2A2A2m1K2K2I2K2K2K2K2K2K2K2K2K2K2K2K2K2K2K2K2K2K2K2K2K2K2K2K2K2H2l1      ",
"      k1j1m1A2A2A2A2A2A2A2A2A2A2A2I2I2I2I2I2I2I2I2I2I2I2I2I2I2I2I2I2I2I2I2I2I2I2I2I2K2i1C3      ",
"      h1j1m1m1m1m1m1m1m1m1m1m1m1m1m1m1m1m1m1m1m1m1m1m1m1m1m1m1m1m1m1m1m1m1m1m1m1m1m1A2g1        ",
"      f1j1e1m1d1d1d1d1d1d1d1d1d1d1d1d1d1d1d1d1d1d1d1d1d1d1d1d1d1d1d1d1d1d1d1d1d1d1d1m1Z3        ",
"      c1b1e1e1e1e1e1e1e1e1e1e1e1e1e1e1e1e1e1e1e1e1e1e1e1e1e1e1e1e1e1e1e1e1e1e1e1e1e1d1a1        ",
"        Z1Y1X1e1e1e1e1W1e1e1e1e1e1X1W1e1e1e1e1X1V1U1W1U1e1e1e1e1e1e1X1V1W1T1T1S1e1e1m1F2        ",
"        q1V1S1S1S1X1R1q1T1X1Y1Y1Q1T1P1O1Y1Y1Q1U1p3q2N1q2O1S1S1Y1Y1Q1U1q2R2M1L1j3W1Y1X1K1        ",
"        p3V1S1S1V1J1I1o2H1J1V1G1F1o2o2G1V1E1F1o2o2D1C1B1A1S1S1Y1;1F1o2:1918171q161S1X151        ",
"        k3V1O1O1O1A1o2o2416131X121o2q1611101o2z0Z3y0E1A1S1O1x0w0o2o2;1v0Q161A161V1x0V1u0        ",
"        t0S13131O1y0z0o2o2s0r0o2o2q0v0x0;1o2o2p061y0v0E1x03161D3o2F1Z3E1o011y0x031O1x0n0        ",
"        m0x0l0l0l0W1f321o2z1o2D1k0J1W1;1j0o2i0j0N1h0:1g0r0l0f0e0o2d0v1c0b0o2a0f0l0T131Z0        ",
"        Y0S1J1l0l0l0l0W1o2o2a0X0T1l0J1U1I1o2I1i0W0q2V0U0f0l0p0T0T0g0z0S0j3n3A2J1l0T1J1R0        ",
"        n131Q1Q1Q1J1T3D3o2o2B2Y3J1Q1Q1v0m3o2w0p0r0f0r0p0J1Q0Q1o2P0O0f0;1;1f0p0J1J1Q0v0N0        ",
"        M0G1Q0Q0J1X081o2L0K0o2J0I0J1Q0p0a0o2T3Q1Q0Q0Q0Q0Q0A1d1o2H0T3p0G0e3F0q2E0Q1A1g1C3        ",
"        x1M2A1Q0G0D0o2v0o0p0V1o2C0B0E1p0A0;0G0Q0Q0Q0Q0Q0Q011A2o2C07171o2:0h0G1A1Q0g1g1          ",
"          9080E0U1o270E0A1A111g3e1A1o0605040g3o0o0o0o0o0o0A16030G2p3l3E0a3G011A1A1Z3Y3          ",
"          j380o0E1g3o0o0o0o0o0o080o0o0o0g1J1o0o0o0o0o0o0o0o0A1p060Z3Z311o0o0o0o0A160a1          ",
"          j0Z3808080808080808080808080E080Z3E0E0E0E0E0E0E0E0E0E0E0E0E0E0E0E0E0E0Z3f323          ",
"          30r0o0o0o0o0o0o0o0o0f0A1A1A1o0o0A111E0E0E0E020L0p02020p0Z360Z3p0G0G0G0e3p0h2          ",
"          C3E21010101010101010K10000K1K1K1K1K1K1K1K1K1K1K1K1K1K1K1K1K1K1K1K1K1K1K1r2C3          ",
"                                                                                                ",
"                                                                                                ",
"                                                                                                ",
"                                                                                                ",
"                                                                                                ",
"                                                                                                "};
