/* XPM */
static char *image[] = {
"64 64 397 2",
"   c None",
"00 c #f5f6f5",
"10 c #3d86fb",
"20 c #2778fb",
"30 c #2778fc",
"40 c #327ffb",
"50 c #3d85fb",
"60 c #5493f9",
"70 c #75a7f9",
"80 c #95baf7",
"90 c #c9daf7",
":0 c #f2f3f4",
";0 c #b4cef8",
"A0 c #2476fc",
"B0 c #2376fb",
"C0 c #2376fc",
"D0 c #2f7dfb",
"E0 c #679ff9",
"F0 c #b3cdf7",
"G0 c #f1f3f5",
"H0 c #f4f4f4",
"I0 c #2477fc",
"J0 c #2578fc",
"K0 c #2477fb",
"L0 c #3581fc",
"M0 c #91b8f8",
"N0 c #eef1f5",
"O0 c #2679fc",
"P0 c #2579fc",
"Q0 c #2578fb",
"R0 c #3a85fa",
"S0 c #a3c3f7",
"T0 c #f3f4f5",
"U0 c #b9d1f6",
"V0 c #267afc",
"W0 c #277afc",
"X0 c #2679fb",
"Y0 c #488dfa",
"Z0 c #bad3f8",
"a0 c #8ab5f8",
"b0 c #287cfb",
"c0 c #287cfc",
"d0 c #297cfc",
"e0 c #287bfb",
"f0 c #8ab6f9",
"g0 c #67a1f9",
"h0 c #2a7dfc",
"i0 c #297dfc",
"j0 c #297cfb",
"k0 c #297dfb",
"l0 c #68a1f9",
"m0 c #ecf0f6",
"n0 c #4e93fa",
"o0 c #2a7efc",
"p0 c #2a7efb",
"q0 c #2a7dfb",
"r0 c #4e93fb",
"s0 c #dce6f6",
"t0 c #f5f5f5",
"u0 c #dde8f7",
"v0 c #2b7ffb",
"w0 c #2b7efb",
"x0 c #2b7ffc",
"y0 c #3d89fb",
"z0 c #dde7f7",
"01 c #5095fa",
"11 c #2c80fb",
"21 c #2c80fc",
"31 c #5095fb",
"41 c #edf1f6",
"51 c #2d81fc",
"61 c #2d82fc",
"71 c #2d81fb",
"81 c #2c81fb",
"91 c #6ba5fa",
":1 c #2e82fb",
";1 c #2d82fb",
"A1 c #2e82fc",
"B1 c #2e83fc",
"C1 c #8db9f8",
"D1 c #f6f6f6",
"E1 c #bdd6f8",
"F1 c #2f84fc",
"G1 c #2f83fb",
"H1 c #2e83fb",
"I1 c #bdd7f9",
"J1 c #3085fb",
"K1 c #2f84fb",
"L1 c #3085fc",
"M1 c #3084fb",
"N1 c #5097fa",
"O1 c #f5f6f7",
"P1 c #3187fb",
"Q1 c #3186fb",
"R1 c #3287fc",
"S1 c #aaccf9",
"T1 c #f0f3f7",
"U1 c #4794fb",
"V1 c #3388fc",
"W1 c #3288fc",
"X1 c #3287fb",
"Y1 c #3288fb",
"Z1 c #4894fc",
"a1 c #f1f4f8",
"b1 c #9bc3fa",
"c1 c #3389fc",
"d1 c #3489fc",
"e1 c #3389fb",
"f1 c #9ac3f9",
"g1 c #f7f7f7",
"h1 c #f9f9f8",
"i1 c #f4f5f7",
"j1 c #4392fc",
"k1 c #348bfc",
"l1 c #358bfc",
"m1 c #348afc",
"n1 c #348afb",
"o1 c #4393fc",
"p1 c #f5f6f8",
"q1 c #c2dcfd",
"r1 c #67a8fc",
"s1 c #c2ddfd",
"t1 c #d6e8fe",
"u1 c #a6ccfd",
"v1 c #4494fc",
"w1 c #358cfc",
"x1 c #358bfb",
"y1 c #bbd7fa",
"z1 c #75b0fa",
"02 c #a3cbfd",
"12 c #3a8ffc",
"22 c #68a9fc",
"32 c #358cfb",
"42 c #368dfc",
"52 c #368cfb",
"62 c #74affa",
"72 c #f6f7f8",
"82 c #4193fb",
"92 c #dbeafe",
":2 c #59a1fc",
";2 c #ecf4fe",
"A2 c #4695fb",
"B2 c #368dfb",
"C2 c #378efc",
"D2 c #4294fc",
"E2 c #f7f8f9",
"F2 c #f9fbfe",
"G2 c #90c0fd",
"H2 c #a7cefd",
"I2 c #388ffb",
"J2 c #378efb",
"K2 c #378ffb",
"L2 c #388ffc",
"M2 c #d0e2f9",
"N2 c #cce2fd",
"O2 c #4e9cfb",
"P2 c #d7e9fe",
"Q2 c #3990fc",
"R2 c #3991fc",
"S2 c #3990fb",
"T2 c #3890fb",
"U2 c #a2cafa",
"V2 c #f8f8f8",
"W2 c #86bbfb",
"X2 c #f2f8fe",
"Y2 c #7fb8fd",
"Z2 c #3a93fb",
"a2 c #3b93fc",
"b2 c #3a92fb",
"c2 c #3a93fc",
"d2 c #85bafb",
"e2 c #68abfa",
"f2 c #3b94fb",
"g2 c #3c94fc",
"h2 c #3b94fc",
"i2 c #3b93fb",
"j2 c #68acfa",
"k2 c #54a2fc",
"l2 c #3c94fb",
"m2 c #3c95fc",
"n2 c #54a1fb",
"o2 c #f9faf9",
"p2 c #4a9dfb",
"q2 c #3c95fb",
"r2 c #3c96fb",
"s2 c #3d96fb",
"t2 c #3d96fc",
"u2 c #4a9cfb",
"v2 c #3e97fc",
"w2 c #3e98fc",
"x2 c #3d97fb",
"y2 c #3e97fb",
"z2 c #4299fc",
"03 c #f9f9f9",
"13 c #429afb",
"23 c #3f98fb",
"33 c #3f99fc",
"43 c #3e98fb",
"53 c #439bfc",
"63 c #3f99fb",
"73 c #3f9afb",
"83 c #409afc",
"93 c #4da0fb",
":3 c #57a7fb",
";3 c #409bfc",
"A3 c #419bfc",
"B3 c #409afb",
"C3 c #409bfb",
"D3 c #57a6fb",
"E3 c #6db2fb",
"F3 c #419cfb",
"G3 c #429cfc",
"H3 c #419cfc",
"I3 c #6eb3fb",
"J3 c #fafbfa",
"K3 c #f3f8fe",
"L3 c #83bffd",
"M3 c #429efc",
"N3 c #419dfb",
"O3 c #429dfb",
"P3 c #8ac2fb",
"Q3 c #cfe7fe",
"R3 c #59aafb",
"S3 c #d9ecfe",
"T3 c #439ffb",
"U3 c #44a0fc",
"V3 c #a8d2fb",
"W3 c #d5e8fb",
"X3 c #99ccfd",
"Y3 c #add6fd",
"Z3 c #44a0fb",
"a3 c #45a1fb",
"b3 c #44a1fb",
"c3 c #45a1fc",
"d3 c #d4e8fb",
"e3 c #fafafa",
"f3 c #fbfcfb",
"g3 c #f8fafa",
"h3 c #50a8fc",
"i3 c #dfeffe",
"j3 c #66b2fb",
"k3 c #54a9fc",
"l3 c #46a2fc",
"m3 c #45a2fb",
"n3 c #4fa7fb",
"o3 c #f9fafb",
"p3 c #81bffb",
"q3 c #acd6fd",
"r3 c #4ba5fb",
"s3 c #74bafc",
"t3 c #eef6fe",
"u3 c #46a4fc",
"v3 c #46a3fc",
"w3 c #46a3fb",
"x3 c #47a4fc",
"y3 c #80c0fb",
"z3 c #c3e1fb",
"04 c #cce6fe",
"14 c #77bbfc",
"24 c #55abfc",
"34 c #aed7fd",
"44 c #daedfe",
"54 c #fafcfe",
"64 c #c9e5fd",
"74 c #47a5fc",
"84 c #47a4fb",
"94 c #c3e1fc",
":4 c #f8fafb",
";4 c #47a5fb",
"A4 c #48a6fb",
"B4 c #48a6fc",
"C4 c #55acfb",
"D4 c #f9fbfc",
"E4 c #a6d3fb",
"F4 c #48a7fb",
"G4 c #49a7fc",
"H4 c #49a7fb",
"I4 c #a6d4fc",
"J4 c #f6f9fb",
"K4 c #5db1fc",
"L4 c #4aa8fc",
"M4 c #49a8fb",
"N4 c #4aa9fc",
"O4 c #5cb1fb",
"P4 c #f5f8fb",
"Q4 c #b7ddfc",
"R4 c #4aa9fb",
"S4 c #4baafc",
"T4 c #4aaafb",
"U4 c #4aaafc",
"V4 c #b6dbfb",
"W4 c #fbfbfb",
"X4 c #69b9fc",
"Y4 c #4cacfc",
"Z4 c #4cacfb",
"a4 c #4bacfb",
"b4 c #69b9fb",
"c4 c #fafcfc",
"d4 c #cbe6fc",
"e4 c #4cadfb",
"f4 c #4dadfc",
"g4 c #4daefc",
"h4 c #4dadfb",
"i4 c #cae6fc",
"j4 c #fcfcfc",
"k4 c #a1d4fc",
"l4 c #4eaffc",
"m4 c #4eaefb",
"n4 c #4daefb",
"o4 c #a1d5fc",
"p4 c #4fb0fb",
"q4 c #4eaffb",
"r4 c #4fb0fc",
"s4 c #4eb0fb",
"t4 c #85c9fc",
"u4 c #50b1fc",
"v4 c #4fb1fc",
"w4 c #4fb1fb",
"x4 c #6dbefb",
"y4 c #fcfdfc",
"z4 c #5fb9fc",
"05 c #51b3fc",
"15 c #50b2fc",
"25 c #50b3fc",
"35 c #50b2fb",
"45 c #5fb8fb",
"55 c #51b4fc",
"65 c #50b3fb",
"75 c #51b3fb",
"85 c #6fc1fc",
"95 c #e8f4fd",
":5 c #f6fbfe",
";5 c #51b4fb",
"A5 c #52b5fc",
"B5 c #52b5fb",
"C5 c #87ccfc",
"D5 c #f5fafd",
"E5 c #fdfffd",
"F5 c #fdfefd",
"G5 c #a4d9fd",
"H5 c #53b6fb",
"I5 c #52b6fb",
"J5 c #53b6fc",
"K5 c #a4d9fc",
"L5 c #fdfdfd",
"M5 c #ceebfd",
"N5 c #70c4fc",
"O5 c #55b9fc",
"P5 c #54b9fc",
"Q5 c #54b9fb",
"R5 c #54b8fb",
"S5 c #6fc4fb",
"T5 c #ceebfe",
"U5 c #66c0fb",
"V5 c #55b9fb",
"W5 c #55bafc",
"X5 c #55bafb",
"Y5 c #66c1fc",
"Z5 c #bce4fd",
"a5 c #fdfefe",
"b5 c #fffffe",
"c5 c #aedffd",
"d5 c #63c0fc",
"e5 c #56bcfc",
"f5 c #56bbfc",
"g5 c #55bbfb",
"h5 c #56bbfb",
"i5 c #63c0fd",
"j5 c #addffd",
"k5 c #f9fcfe",
"l5 c #caeafd",
"m5 c #57bdfc",
"n5 c #57bcfb",
"o5 c #56bcfb",
"p5 c #60c0fc",
"q5 c #8ed3fc",
"r5 c #cbeafd",
"s5 c #fbfdfe",
"t5 c #feffff",
"u5 c #dcf1fe",
"v5 c #b4e3fe",
"w5 c #99d8fd",
"x5 c #7fcefc",
"y5 c #6cc8fc",
"z5 c #63c1fb",
"06 c #5cc0fd",
"16 c #5cc0fc",
"26 c #64c2fc",
"36 c #6dc8fd",
"46 c #7fcffc",
"56 c #9ad9fe",
"66 c #b3e3fd",
"76 c #ddf2ff",
"86 c #fdfffe",
"96 c #fefffe",
":6 c #fefefe",
";6 c #ffffff",
"                                                                                                                                ",
"                                                                                                                                ",
"                                                      ;6;6;6;6;6;6;6;6;6;6                                                      ",
"                                              ;6;6;6:6;6;6:6;6:6:6;6:6;6;6;6;6;6;6                                              ",
"                                        ;6;6;696867666564636261606z5y5x5w5v5u5t5;6;6;6;6                                        ",
"                                    ;6:6:6s5r5q5p5o5o5n5o5o5m5n5o5m5n5o5n5o5n5p5q5l5s5:6:6;6                                    ",
"                                ;6:6:6k5j5i5h5g5g5f5h5f5f5g5h5f5h5e5f5g5g5f5h5g5g5f5d5c5k5b5:6;6                                ",
"                              ;6:6a5Z5Y5X5W5W5X5X5X5X5W5V5W5X5V5X5X5X5W5X5W5W5X5X5X5X5W5U5Z5a5:6;6                              ",
"                            ;6:6T5S5R5R5Q5R5R5P5R5Q5O5Q5R5Q5O5Q5P5Q5R5R5Q5R5R5P5R5Q5O5Q5R5Q5N5M5:6;6                            ",
"                        L5:6L5K5J5I5J5J5I5J5I5H5J5I5J5I5J5I5I5I5J5I5J5J5I5J5I5H5J5I5J5I5J5I5I5I5G5F5L5E5                        ",
"                      ;6:6D5C5B5A5B5B5;5A5B5A5;5B5A5B5A5;5B5A5B5A5B5B5;5A5B5A5;5B5A5B5A5;5B5A5B5A5C5:5:6;6                      ",
"                    :6L5958575;5657555;565757565;55575;5755575;5657555;565757565;55575;5755575;565758595L5:6                    ",
"                  L5L595453525353525352535152515353535053535253535253525351525153535350535352535352535z495:6L5                  ",
"                  y4D5x4w4v4w4w4u4w4w4v4w4w4w4w4u4u4w4w4w4v4w4w4u4w4w4v4w4w4w4w4u4u4w4w4w4v4w4w4u4w4w4v4x4D5L5                  ",
"                :6L5t4s4r4s4s4r4r4s4r4q4s4r4s4p4s4s4r4s4r4s4s4r4r4s4r4q4s4r4s4p4s4s4r4s4r4s4s4r4r4s4r4q4s4t4L5L5                ",
"              :6L5o4n4m4l4n4q4m4n4q4m4q4l4n4l4n4l4n4n4m4l4n4q4m4n4q4m4q4l4n4l4n4l4n4n4m4l4n4q4m4n4q4m4q4l4n4k4L5:6              ",
"            L5j4i4h4g4f4e4h4g4g4h4f4e4g4h4h4h4h4g4h4g4f4e4h4g4g4h4f4e4g4h4h4h4h4g4h4g4f4e4h4g4g4h4f4e4g4h4h4h4d4L5L5            ",
"            j4c4b4a4Z4Z4Z4Y4Z4Z4Z4Z4Y4Z4a4Y4Z4Y4Z4a4Z4Z4Z4Y4Z4Z4Z4Z4Y4Z4a4Y4Z4Y4Z4a4Z4Z4Z4Y4Z4Z4Z4Z4Y4Z4a4Y4Z4X4c4j4            ",
"          W4j4V4U4T4S4S4T4R4S4R4S4R4U4T4R4S4R4R4U4T4S4S4T4R4S4R4S4R4U4T4R4S4R4R4U4T4S4S4T4R4S4R4S4R4U4T4R4S4R4R4Q4j4j4          ",
"          j4P4O4N4M4M4M4M4N4M4M4M4N4M4M4M4M4L4M4N4M4M4M4M4N4M4M4M4N4M4M4M4M4L4M4N4M4M4M4M4N4M4M4M4N4M4M4M4M4L4M4K4J4j4          ",
"        j4W4I4H4H4G4H4G4H4G4F4H4G4F4H4G4G4G4F4H4H4G4H4G4H4G4F4H4G4F4H4G4G4G4F4H4H4G4H4G4H4G4F4H4G4F4H4G4G4G4F4H4H4E4j4j4        ",
"        L5D4C4B4B4A4;4A4;4A4B4A4;4B4A4A4A4A4A4B4B4A4;4A4;4A4B4A4;4B4A4A4A4A4A4B4B4A4;4A4;4A4B4A4;4B4A4A4A4A4A4B4B4C4:4L5        ",
"        W494848484748474748464;6;6;6;6;6;6;6;6;6;6;6;6;6;6;6;6;6;6;6544434248484847484747484;47414047484847484848474z3W4        ",
"      W4W4y3x3w3w3w3w3v3w3u3;6;6;6;6;6;6;6;6;6;6;6;6;6;6;6;6;6;6;6;6;6;6;6t3s3w3w3w3w3v3w3u3r3q3:6;6w3x3w3u3x3w3w3w3p3W4W4      ",
"      j4o3n3m3l3m3m3v3m3m3m3;6;6;6;6;6;6;6;6;6;6;6;6;6;6;6;6;6;6;6;6;6;6;6;6t3k3m3m3v3m3m3j3i3;6;6;6m3m3m3m3m3l3m3m3h3g3f3      ",
"      e3d3c3b3a3c3b3c3Z3c3b3;6;6;6;6;6;6;6;6;6;6;6;6;6;6;6;6;6;6;6;6;6;6;6;6;6Y3c3b3c3Z3X354;6;6;6;6c3c3b3c3b3a3c3b3c3W3W4      ",
"      W4V3Z3U3T3T3U3Z3U3T3Z3;6;6;6;6;6;6;6;6;6;6;6;6;6;6;6;6;6;6;6;6;6;6;6;6;6S3T3U3R3Q3;6;6;6;6;6;6Z3T3U3Z3U3T3T3U3Z3V3W4      ",
"    e3e3P3O3O3N3O3M3O3O3O3M3;6;6;6;6;6;6;6;6;6;6;6;6;6;6;6;6;6;6;6;6;6;6;6;6;654O3L3K3;6;6;6;6;6;6;6M3O3O3O3O3N3O3M3O3P3J3e3    ",
"    W4W4I3H3G3H3F3F3H3G3F3F3;6;6;6;6;6;6;6;6;6;6;6;6;6;6;6;6;6;6;6;6;6;6;6;6;6;6F3;6;6;6;6;6;6;6;6;6F3H3F3H3G3H3F3F3H3E3e3W4    ",
"    e3e3D3C3C3B3A3A3B3C3B3;3;6;6;6;6;6;6;6;6;6;6;6;6;6;6;6;6;6;6;6;6;6;6;6;6;6;6A3;6;6;6;6;6;6;6;6;6C3;3B3C3C3B3A3A3B3:3e3e3    ",
"    W4e3938373B3637383638373;6;6;6;6;6;6;6;6;6;6;6;6;6;6;6;6;6;6;6;6;6;6;6;6;6;663;6;6;6;6;6;6;6;6;68363638373B363738393e3W4    ",
"    e3e353433343334343433343;6;6;6;6;6;6;6;6;6;6;6;6;6;6;6;6;6;6;6;6;6;6;6;6;6;633;6;6;6;6;6;6;6;6;64323334333433343431303e3    ",
"    e3e3z2y2x2y2w2y2w2v2x2x2;6;6;6;6;6;6;6;6;6;6;6;6;6;6;6;6;6;6;6;6;6;6;6;6;6;6w2;6;6;6;6;6;6;6;6;6x2w2v2y2x2y2w2y2w2z203e3    ",
"    e303u2t2s2t2s2r2s2r2s2t2;6;6;6;6;6;6;6;6;6;6;6;6;6;6;6;6;6;6;6;6;6;6;6;6;6;6s2;6;6;6;6;6;6;6;6;6t2s2q2t2s2t2s2r2s2p203e3    ",
"    o203n2m2l2q2m2q2m2m2q2q2;6;6;6;6;6;6;6;6;6;6;6;6;6;6;6;6;6;6;6;6;6;6;6;6;6;6m2;6;6;6;6;6;6;6;6;6m2q2l2m2l2q2m2q2m2k203o2    ",
"    e303j2i2h2i2g2i2i2i2i2h2;6;6;6;6;6;6;6;6;6;6;6;6;6;6;6;6;6;6;6;6;6;6;6;6;6;6g2;6;6;6;6;6;6;6;6;6i2i2f2i2h2i2g2i2i2e203e3    ",
"    0303d2c2b2b2b2a2Z2a2b2c254;6;6;6;6;6;6;6;6;6;6;6;6;6;6;6;6;6;6;6;6;6;6;6;6;6b2Y2X2;6;6;6;6;6;6;6b2a2a2c2b2b2b2a2Z2W2V203    ",
"      03U2T2S2R2Q2T2T2S2T2T2P2;6;6;6;6;6;6;6;6;6;6;6;6;6;6;6;6;6;6;6;6;6;6;6;6;6Q2T2O2N2;6;6;6;6;6;6T2T2S2T2S2R2Q2T2T2U203      ",
"      V2M2L2K2K2J2L2I2L2L2K2H2;6;6;6;6;6;6;6;6;6;6;6;6;6;6;6;6;6;6;6;6;6;6;6;6;6J2L2I2L2G2F2;6;6;6;6L2J2K2L2K2K2J2L2I2M2V2      ",
"      e3E2D2C2J2C2J2B2C2B2C2A2;2;6;6;6;6;6;6;6;6;6;6;6;6;6;6;6;6;6;6;6;6;6;6;6;6C2J2B2C2B2:292;6;6;6J2C2J2C2C2J2C2J2827203      ",
"      V2V262524232B242B252B24222;2;6;6;6;6;6;6;6;6;6;6;6;6;6;6;6;6;6;6;6;6;6;6;632B242B252B21202a5;63252B232524232B2z1V2V2      ",
"        V2y1x1x1w1x1w1x1w1x1x1x1v1u1t154;6;6;6;6;6;6;6;6;6;6;6;6;6;6;6;6;6;6;6s1w1x1w1x1w1x1x1x1r1q1w1w1x1w1x1x1w1x1y1V2        ",
"        03p1o1n1n1m1n1m1n1n1m1n1l1n1n1n1m1n1k1n1n1m1n1m1n1n1m1n1l1n1n1n1m1n1k1n1n1m1n1m1n1n1m1n1l1n1n1n1m1n1k1n1n1j1i103        ",
"        h1g1f1e1e1d1e1e1e1d1e1c1e1e1m1e1e1e1e1e1e1d1e1e1e1d1e1c1e1e1m1e1e1e1e1e1e1d1e1e1e1d1e1c1e1e1m1e1e1e1e1e1e1b1g103        ",
"          g1a1Z1Y1X1W1V1X1Y1V1Y1Y1V1Y1V1Y1W1V1V1Y1X1W1V1X1Y1V1Y1Y1V1Y1V1Y1W1V1V1Y1X1W1V1X1Y1V1Y1Y1V1Y1V1Y1W1V1V1U1T1V2          ",
"          g1g1S1R1R1Q1X1Q1R1Q1Q1R1Q1P1R1Q1P1Q1Q1R1R1Q1X1Q1R1Q1Q1R1Q1P1R1Q1P1Q1Q1R1R1Q1X1Q1R1Q1Q1R1Q1P1R1Q1P1Q1Q1S1g1g1          ",
"            g1O1N1M1L1K1L1M1K1L1L1K1L1K1K1L1M1J1K1M1L1K1L1M1K1L1L1K1L1K1K1L1M1J1K1M1L1K1L1M1K1L1L1K1L1K1K1L1M1N1O1g1            ",
"            g1g1I1H1H1G1F1H1G1G1H1G1G1G1F1H1F1H1F1H1H1G1F1H1G1G1H1G1G1G1F1H1F1H1F1H1H1G1F1H1G1G1H1G1G1G1F1H1F1E1g1g1            ",
"              g1D1C1B1A1;1:1A1B1:1A1;1B1A1:1:1:1B1:1B1A1;1:1A1B1:1A1;1B1A1:1:1:1B1:1B1A1;1:1A1B1:1A1;1B1A1:1C1g1V2              ",
"                g1D19181716171817181517181517151718171817161718171815171815171517181718171617181718151718191g1g1                ",
"                  D14131211121112111211111211111211121212111211121112111112111112111212121112111211121110141D1                  ",
"                  g1D1z0y0x0w0v0v0x0v0w0v0v0x0w0x0v0v0w0v0x0w0v0v0x0v0w0v0v0x0w0x0v0v0w0v0x0w0v0v0x0v0y0u0D1g1                  ",
"                    g1t0s0r0q0p0o0q0p0o0o0o0q0p0p0o0p0o0p0o0q0p0o0q0p0o0o0o0q0p0p0o0p0o0p0o0q0p0o0q0n0z0D1g1                    ",
"                      D1t0m0l0k0j0i0k0j0k0j0k0h0i0j0j0k0j0k0h0k0j0i0k0j0k0j0k0h0i0j0j0k0j0k0h0k0j0g0m0t0D1                      ",
"                        g1t0D1f0e0d0c0e0e0c0e0e0e0c0e0d0c0e0b0c0e0d0c0e0e0c0e0e0e0c0e0d0c0e0b0c0a0t0D1t0                        ",
"                            D1D1Z0Y0X0W0X0V0W0X0V0X0X0V0X0V0X0X0V0X0X0W0X0V0W0X0V0X0X0V0X0V0Y0U0t0D1                            ",
"                              t0t0T0S0R0Q0Q0Q0P0Q0Q0O0Q0Q0Q0O0Q0O0Q0Q0Q0Q0Q0Q0P0Q0Q0O0Q0R0S0T0t0t0                              ",
"                                D1t0t0N0M0L0K0K0J0K0J0K0J0K0K0K0I0K0J0I0K0J0K0K0J0K0L0M0N0H0t0H0                                ",
"                                    D1H0H0G0F0E0D0C0B0C0B0B0A0B0I0B0B0B0A0B0A0D0E0;0G0t0t0D1                                    ",
"                                        t0t0t0H0:09080706050403020401060708090:0H0H0t0t0                                        ",
"                                              D1D1H0t0H0H0t0H0t0t0H0t0H0H0H0H0t0H0                                              ",
"                                                      t0t000H00000H000t0t0                                                      ",
"                                                                                                                                ",
"                                                                                                                                "};
